<svg xmlns="http://www.w3.org/2000/svg" xmlns:xlink="http://www.w3.org/1999/xlink" version="1.1" x="0px" y="0px" viewBox="0 0 100 125" style="enable-background:new 0 0 100 100;" xml:space="preserve"><g><path d="M95.43,75.126V19.355c0-3.004-2.436-5.438-5.439-5.438s-5.439,2.435-5.439,5.438v1.582h-4.719   c-0.902-2.342-3.174-4.004-5.834-4.004s-4.93,1.662-5.832,4.004H45.575c-0.903-2.342-3.173-4.004-5.833-4.004   c-2.661,0-4.931,1.662-5.833,4.004h-3.514c-0.903-2.342-3.173-4.004-5.833-4.004c-2.661,0-4.931,1.662-5.833,4.004H15.47v-1.582   c0-3.004-2.435-5.438-5.438-5.438c-3.004,0-5.439,2.435-5.439,5.438v55.767C1.986,75.563,0,77.831,0,80.563   c0,3.049,2.472,5.521,5.52,5.521h88.96c3.048,0,5.52-2.472,5.52-5.521C100,77.838,98.025,75.576,95.43,75.126z M51.894,39.512   c1.089,1.839,3.091,3.073,5.382,3.073c2.292,0,4.295-1.234,5.383-3.073h21.893v8.809H74.396c-0.951-2.239-3.17-3.809-5.756-3.809   s-4.805,1.57-5.756,3.809H50.53c-0.951-2.239-3.169-3.809-5.755-3.809s-4.805,1.57-5.755,3.809h-7.16   c-0.951-2.239-3.17-3.809-5.756-3.809s-4.805,1.57-5.755,3.809H15.47v-8.809H51.894z M20.348,53.204   c0.951,2.239,3.169,3.81,5.755,3.81s4.805-1.57,5.756-3.81h7.16c0.951,2.239,3.169,3.81,5.755,3.81s4.805-1.57,5.755-3.81h12.354   c0.951,2.239,3.17,3.81,5.756,3.81s4.805-1.57,5.756-3.81h10.154v8.81H62.006c-0.951-2.239-3.17-3.81-5.756-3.81   s-4.805,1.57-5.755,3.81h-9.706c-0.951-2.239-3.17-3.81-5.756-3.81s-4.804,1.57-5.755,3.81H15.47v-8.81H20.348z M29.278,66.896   c0.951,2.238,3.169,3.809,5.755,3.809s4.805-1.57,5.756-3.809h9.706c0.95,2.238,3.169,3.809,5.755,3.809s4.805-1.57,5.756-3.809   h22.545v8.146H15.47v-8.146H29.278z M18.894,25.82c0.995,2.134,3.157,3.614,5.667,3.614c2.51,0,4.672-1.48,5.667-3.614h3.846   c0.995,2.134,3.158,3.614,5.667,3.614c2.509,0,4.672-1.48,5.667-3.614h22.922c0.995,2.134,3.157,3.614,5.667,3.614   s4.673-1.48,5.668-3.614h4.885v8.809H63.289c-0.742-2.623-3.152-4.545-6.014-4.545c-2.86,0-5.271,1.922-6.013,4.545H15.47V25.82   H18.894z"/></g><text x="0" y="115" fill="#000000" font-size="5px" font-weight="bold" font-family="'Helvetica Neue', Helvetica, Arial-Unicode, Arial, Sans-serif">Created by b farias</text><text x="0" y="120" fill="#000000" font-size="5px" font-weight="bold" font-family="'Helvetica Neue', Helvetica, Arial-Unicode, Arial, Sans-serif">from the Noun Project</text></svg>