<svg xmlns="http://www.w3.org/2000/svg" version="1.1" viewBox="-5.0 -10.0 110.0 135.0">
   <path d="m50 7.6836c-23.367 0-42.316 18.949-42.316 42.316s18.949 42.316 42.316 42.316 42.316-18.949 42.316-42.316-18.949-42.316-42.316-42.316zm18 58.527c0.73828 0.73828 0.63281 1.8945-0.10547 2.6328-4.6328 4.4219-10.844 6.9492-17.262 7.1562-0.94922 0-1.7891-0.84375-1.8945-1.7891 0-1.0508 0.73828-1.8945 1.7891-1.8945 5.5781-0.10547 10.844-2.3164 14.844-6.1055 0.73438-0.73828 1.8906-0.73828 2.6289 0zm-39.895-37.16c-0.52734 0-0.94922-0.21094-1.3672-0.52734-0.73828-0.73828-0.63281-1.8945 0-2.6328 6.1055-5.8945 14.105-9.1562 22.527-9.3672 1.0508-0.10547 1.8945 0.84375 1.8945 1.7891 0 1.0508-0.84375 1.8945-1.7891 1.8945-7.4727 0.10547-14.633 3.0508-20 8.3164-0.32031 0.42578-0.84375 0.52734-1.2656 0.52734zm5.2617 5.2656c-0.52734 0-0.94922-0.21094-1.3672-0.52734-0.73828-0.73828-0.63281-1.8945 0.10547-2.6328 4.6328-4.4219 10.844-6.9492 17.262-7.1562 0.94922-0.10547 1.8945 0.73828 1.8945 1.7891 0 1.0508-0.73828 1.8945-1.7891 1.8945-5.5781 0.10547-10.844 2.3164-14.844 6.1055-0.3125 0.31641-0.83984 0.52734-1.2617 0.52734zm3.7891 15.684c0-7.0508 5.7891-12.844 12.844-12.844 7.0508 0 12.844 5.7891 12.844 12.844 0 7.0508-5.7891 12.844-12.844 12.844-7.0508 0-12.844-5.793-12.844-12.844zm36 24.105c-6.1055 5.8945-14.105 9.1562-22.527 9.3672-1.0508 0-1.7891-0.84375-1.8945-1.7891 0-1.0508 0.84375-1.8945 1.7891-1.8945 7.4727-0.10547 14.633-3.0508 20-8.3164 0.73828-0.73828 1.8945-0.63281 2.6328 0 0.73828 0.73828 0.73828 1.8945 0 2.6328z" fill="#635b54"/>
 <path d="m53.473 50c0-1.8945-1.5781-3.4727-3.4727-3.4727s-3.4727 1.5781-3.4727 3.4727 1.5781 3.4727 3.4727 3.4727 3.4727-1.5781 3.4727-3.4727z"  fill="#635b54"/>
</svg>