<?xml version="1.0" standalone="no"?>
<!DOCTYPE svg PUBLIC "-//W3C//DTD SVG 20010904//EN"
 "http://www.w3.org/TR/2001/REC-SVG-20010904/DTD/svg10.dtd">
<svg version="1.0" xmlns="http://www.w3.org/2000/svg"
 width="300.000000pt" height="150.000000pt" viewBox="0 0 300.000000 150.000000"
 preserveAspectRatio="xMidYMid meet">
<metadata>
Created by potrace 1.10, written by Peter Selinger 2001-2011
</metadata>
<g transform="translate(0.000000,150.000000) scale(0.100000,-0.100000)"
fill="#d4a373" stroke="none">
<path d="M140 1486 c0 -8 -13 -26 -30 -39 -16 -14 -30 -31 -30 -38 0 -6 -12
-23 -26 -36 -20 -19 -29 -21 -40 -12 -10 8 -14 8 -14 0 0 -6 5 -11 10 -11 13
0 13 -37 0 -45 -6 -3 -10 -10 -10 -16 0 -5 9 -4 19 3 17 10 23 9 40 -6 27 -25
26 -37 -4 -66 -20 -19 -27 -21 -40 -10 -18 15 -19 7 -3 -20 10 -15 10 -22 0
-32 -17 -17 -15 -33 3 -18 13 11 20 9 40 -10 31 -29 31 -41 0 -70 -20 -19 -27
-21 -40 -10 -18 15 -20 -1 -3 -18 10 -10 10 -17 0 -32 -16 -27 -15 -35 3 -20
13 11 20 9 40 -10 32 -30 31 -43 -1 -65 -20 -13 -28 -14 -40 -4 -9 7 -14 8
-14 1 0 -6 4 -14 10 -17 14 -9 12 -42 -2 -48 -7 -2 -10 -8 -5 -12 4 -5 13 -3
19 3 9 9 17 7 35 -10 29 -27 29 -39 -2 -68 -20 -19 -27 -21 -40 -10 -18 15
-19 7 -3 -20 10 -15 10 -22 0 -32 -17 -17 -15 -33 3 -18 13 11 20 9 40 -10 31
-29 31 -41 0 -70 -20 -19 -27 -21 -40 -10 -18 15 -20 -1 -3 -18 10 -10 10 -17
0 -32 -16 -26 -15 -35 3 -20 11 9 19 8 39 -7 33 -23 33 -46 0 -68 -20 -13 -28
-14 -40 -4 -17 14 -19 -2 -2 -19 10 -10 10 -17 0 -32 -16 -27 -15 -35 3 -20
13 11 20 9 40 -10 31 -29 31 -41 0 -70 -20 -19 -27 -21 -40 -10 -18 15 -20 -1
-3 -18 10 -10 10 -17 0 -32 -16 -27 -15 -35 3 -20 13 11 20 9 40 -10 31 -29
31 -41 0 -70 -20 -19 -27 -21 -40 -10 -18 15 -20 -1 -3 -18 10 -10 10 -17 0
-32 -16 -27 -15 -35 3 -20 13 10 19 9 38 -6 12 -11 25 -23 28 -28 4 -5 20 3
35 18 16 14 31 26 34 26 3 0 18 -12 33 -26 l29 -26 29 28 c28 27 29 27 49 9
11 -10 23 -15 28 -11 4 5 -3 15 -16 23 -28 20 -28 34 3 63 l25 23 25 -23 c33
-31 32 -40 -7 -72 -18 -14 -29 -30 -25 -34 4 -5 11 -4 15 1 4 6 17 19 30 29
21 18 23 18 42 1 11 -10 23 -15 28 -11 4 5 -3 15 -15 23 -29 20 -29 34 2 63
l25 23 25 -23 c33 -31 32 -43 -7 -74 -18 -14 -29 -28 -25 -32 4 -4 21 5 37 21
30 28 30 28 52 9 13 -10 26 -23 29 -28 4 -5 20 3 35 18 16 14 31 26 34 26 3 0
18 -11 33 -25 l27 -26 27 26 c15 14 30 25 33 25 3 0 18 -11 33 -25 l27 -26 27
26 c15 14 30 25 33 25 3 0 18 -11 33 -25 l27 -26 27 26 c15 14 30 25 33 25 3
0 18 -11 33 -25 l27 -26 27 26 c15 14 31 25 34 25 3 0 19 -12 34 -26 l27 -25
29 27 c29 27 29 27 51 8 13 -10 26 -23 29 -28 4 -5 20 3 35 18 16 14 31 26 34
26 3 0 18 -11 33 -25 l27 -26 27 26 c15 14 30 25 33 25 3 0 18 -11 33 -25 l27
-26 27 26 c15 14 30 25 33 25 3 0 17 -11 32 -25 l27 -25 27 25 c33 31 33 31
67 0 l27 -26 27 26 c15 14 30 25 33 25 3 0 18 -11 33 -25 l27 -26 27 26 c15
14 30 25 33 25 3 0 18 -11 33 -25 l27 -26 27 26 c15 14 30 25 33 25 3 0 17
-11 32 -25 l27 -25 27 25 c15 14 30 25 33 25 3 0 19 -12 35 -26 15 -15 31 -23
35 -18 3 5 16 18 29 28 21 18 23 18 42 1 11 -10 23 -15 27 -11 4 3 -3 13 -15
22 -28 20 -28 35 3 64 l25 23 25 -23 c33 -31 32 -40 -7 -72 -18 -14 -30 -30
-26 -33 4 -4 19 5 35 19 15 14 31 26 34 26 3 0 18 -11 33 -25 l27 -25 27 25
c15 14 29 25 32 25 3 0 17 -11 32 -25 l27 -25 27 25 c33 31 33 31 67 0 l27
-26 27 26 c15 14 30 25 33 25 3 0 18 -12 34 -26 15 -15 31 -23 35 -18 3 5 16
18 29 28 21 18 23 18 42 1 11 -10 23 -15 27 -11 4 3 -3 13 -15 22 -28 20 -28
35 3 64 20 19 27 21 40 10 18 -15 20 1 3 18 -10 10 -10 17 0 32 16 27 15 35
-3 20 -13 -11 -20 -9 -40 10 -31 29 -31 41 0 70 20 19 27 21 40 10 18 -15 20
1 3 18 -10 10 -10 17 0 32 16 27 15 35 -3 20 -13 -11 -20 -9 -40 10 -31 29
-31 33 -1 63 22 22 26 23 40 9 15 -15 16 -15 16 1 0 9 -4 17 -10 17 -5 0 -10
9 -10 20 0 11 5 20 10 20 6 0 10 8 10 18 -1 16 -2 16 -14 -1 -14 -18 -15 -17
-40 4 -32 28 -33 39 -1 69 20 19 27 21 40 10 18 -15 20 1 3 18 -10 10 -10 17
0 32 16 27 15 35 -3 20 -13 -11 -20 -9 -40 10 -14 13 -25 29 -25 35 0 6 11 22
25 35 20 19 27 21 40 10 18 -15 20 1 3 18 -10 10 -10 17 0 32 16 27 15 35 -3
20 -13 -11 -20 -9 -40 10 -31 29 -31 37 -2 60 12 10 19 22 15 26 -5 4 -17 -1
-27 -10 -19 -17 -21 -17 -45 1 -32 23 -32 34 -1 63 l25 23 25 -23 c14 -13 25
-29 25 -35 0 -7 9 -20 20 -30 21 -19 28 -7 8 13 -10 10 -10 17 0 33 8 12 11
24 7 27 -3 4 -10 0 -15 -8 -7 -12 -13 -10 -34 10 -32 29 -32 40 -1 70 20 19
27 21 40 10 18 -15 20 1 3 18 -10 10 -10 17 0 32 16 27 15 35 -3 20 -13 -11
-20 -9 -40 10 -31 29 -31 41 0 70 20 19 27 21 40 10 18 -15 20 1 3 18 -10 10
-10 17 0 32 16 27 15 35 -3 20 -13 -11 -20 -9 -40 10 -31 29 -31 40 1 63 20
15 28 16 39 7 18 -15 20 1 3 18 -10 10 -10 17 0 32 16 27 15 35 -3 20 -13 -11
-20 -9 -40 10 -14 13 -25 29 -25 37 0 7 -4 13 -10 13 -5 0 -10 -6 -10 -13 0
-8 -11 -24 -25 -37 l-25 -23 -25 23 c-14 13 -25 29 -25 37 0 7 -4 13 -10 13
-5 0 -10 -6 -10 -13 0 -8 -11 -24 -25 -37 l-25 -23 -25 23 c-14 13 -25 29 -25
37 0 7 -4 13 -10 13 -5 0 -10 -6 -10 -13 0 -8 -11 -24 -25 -37 l-25 -23 -25
23 c-14 13 -25 29 -25 37 0 7 -4 13 -10 13 -5 0 -10 -6 -10 -13 0 -8 -11 -24
-25 -37 l-25 -23 -25 23 c-14 13 -25 29 -25 37 0 7 -4 13 -10 13 -5 0 -10 -6
-10 -13 0 -8 -11 -24 -25 -37 l-25 -23 -25 23 c-14 13 -25 29 -25 37 0 7 -4
13 -10 13 -5 0 -10 -6 -10 -13 0 -8 -11 -24 -25 -37 l-25 -23 -25 23 c-14 13
-25 29 -25 37 0 7 -4 13 -10 13 -5 0 -10 -6 -10 -13 0 -8 -11 -24 -25 -37
l-25 -23 -25 23 c-14 13 -25 29 -25 37 0 7 -4 13 -10 13 -5 0 -10 -6 -10 -13
0 -8 -11 -24 -25 -37 l-25 -23 -25 23 c-14 13 -25 29 -25 37 0 7 -4 13 -10 13
-5 0 -10 -6 -10 -13 0 -8 -11 -24 -25 -37 l-25 -23 -25 23 c-14 13 -25 29 -25
37 0 7 -4 13 -10 13 -5 0 -10 -6 -10 -13 0 -8 -11 -24 -25 -37 l-25 -23 -25
23 c-14 13 -25 29 -25 37 0 7 -4 13 -10 13 -5 0 -10 -6 -10 -13 0 -8 -11 -24
-25 -37 l-25 -23 -25 23 c-14 13 -25 29 -25 37 0 7 -4 13 -10 13 -5 0 -10 -6
-10 -13 0 -8 -11 -24 -25 -37 l-25 -23 -25 23 c-14 13 -25 29 -25 37 0 7 -4
13 -10 13 -5 0 -10 -6 -10 -13 0 -8 -11 -24 -25 -37 l-25 -23 -25 23 c-14 13
-25 29 -25 37 0 7 -4 13 -10 13 -5 0 -10 -6 -10 -13 0 -8 -11 -24 -25 -37
l-25 -23 -25 23 c-14 13 -25 29 -25 37 0 7 -4 13 -10 13 -5 0 -10 -6 -10 -13
0 -8 -11 -24 -25 -37 l-25 -23 -25 23 c-14 13 -25 29 -25 37 0 7 -4 13 -10 13
-5 0 -10 -6 -10 -13 0 -8 -11 -24 -25 -37 l-25 -23 -25 23 c-14 13 -25 29 -25
37 0 7 -4 13 -10 13 -5 0 -10 -6 -10 -13 0 -8 -11 -24 -25 -37 l-25 -23 -25
23 c-14 13 -25 29 -25 37 0 7 -4 13 -10 13 -5 0 -10 -6 -10 -13 0 -8 -11 -24
-25 -37 l-25 -23 -25 23 c-14 13 -25 29 -25 37 0 7 -4 13 -10 13 -5 0 -10 -6
-10 -13 0 -8 -11 -24 -25 -37 l-25 -23 -25 23 c-14 13 -25 29 -25 37 0 7 -4
13 -10 13 -5 0 -10 -6 -10 -13 0 -8 -11 -24 -25 -37 l-25 -23 -25 23 c-14 13
-25 29 -25 37 0 7 -4 13 -10 13 -5 0 -10 -6 -10 -13 0 -8 -11 -24 -25 -37
l-25 -23 -25 23 c-14 13 -25 29 -25 37 0 7 -4 13 -10 13 -5 0 -10 -6 -10 -13
0 -8 -11 -24 -25 -37 l-25 -23 -25 23 c-14 13 -25 29 -25 37 0 7 -4 13 -10 13
-5 0 -10 -6 -10 -13 0 -8 -11 -24 -25 -37 l-25 -23 -25 23 c-14 13 -25 29 -25
37 0 7 -4 13 -10 13 -5 0 -10 -6 -10 -14z m37 -48 c29 -27 29 -38 -2 -61 -23
-17 -26 -17 -50 -1 -31 20 -31 31 -3 61 26 28 26 28 55 1z m120 0 c30 -28 29
-40 -6 -66 l-29 -21 -21 23 c-26 28 -26 34 1 63 26 28 26 28 55 1z m120 0 c29
-28 29 -42 -2 -62 -23 -15 -27 -15 -50 0 -31 20 -31 31 -3 61 26 28 26 28 55
1z m120 0 c30 -28 29 -40 -6 -66 l-29 -21 -21 23 c-26 28 -26 34 1 63 26 28
26 28 55 1z m120 0 c29 -28 29 -42 -2 -62 -23 -15 -27 -15 -50 0 -31 20 -31
31 -3 61 26 28 26 28 55 1z m123 -2 c26 -29 22 -51 -15 -68 -21 -9 -28 -8 -45
7 -25 23 -25 33 2 62 27 29 29 29 58 -1z m117 2 c29 -28 29 -42 -2 -62 -23
-15 -27 -15 -50 0 -31 20 -31 31 -3 61 26 28 26 28 55 1z m120 0 c30 -28 29
-42 -3 -63 -23 -15 -27 -15 -50 0 -30 19 -30 32 -2 62 26 28 26 28 55 1z m120
0 c30 -28 29 -42 -2 -62 -24 -16 -27 -16 -50 1 -30 22 -31 31 -3 60 26 28 26
28 55 1z m120 0 c30 -29 29 -43 -7 -70 -16 -12 -30 -29 -30 -37 0 -9 -12 -24
-26 -35 -26 -18 -26 -18 -52 8 l-27 26 27 27 c27 26 28 26 48 8 11 -10 23 -15
28 -11 4 5 -3 15 -15 23 -29 19 -29 31 -1 60 26 28 26 28 55 1z m120 0 c29
-28 29 -42 -2 -62 -23 -15 -27 -15 -50 0 -31 20 -31 31 -3 61 26 28 26 28 55
1z m120 0 c30 -28 29 -42 -7 -68 -16 -12 -30 -29 -30 -38 0 -9 -12 -25 -25
-35 -24 -17 -26 -17 -50 0 -31 23 -31 34 0 63 24 23 25 23 45 5 11 -10 23 -15
28 -11 4 5 -3 15 -15 23 -29 19 -29 31 -1 60 26 28 26 28 55 1z m120 0 c29
-28 29 -42 -2 -62 -23 -15 -27 -15 -50 0 -31 20 -31 31 -3 61 26 28 26 28 55
1z m120 0 c29 -28 29 -42 -2 -62 -23 -15 -27 -15 -50 0 -31 20 -31 31 -3 61
26 28 26 28 55 1z m120 0 c29 -28 29 -42 -2 -62 -23 -15 -27 -15 -50 0 -31 20
-31 31 -3 61 26 28 26 28 55 1z m120 0 c30 -28 29 -42 -3 -65 -26 -19 -27 -19
-50 2 -29 27 -30 33 -2 62 26 28 26 28 55 1z m120 0 c30 -28 29 -42 -3 -63
-23 -15 -27 -15 -50 0 -30 19 -30 32 -2 62 26 28 26 28 55 1z m120 0 c29 -28
29 -42 -2 -62 -23 -15 -27 -15 -50 0 -31 20 -31 31 -3 61 26 28 26 28 55 1z
m120 0 c30 -28 29 -42 -3 -63 -23 -15 -27 -15 -50 0 -30 19 -30 32 -2 62 26
28 26 28 55 1z m120 0 c29 -28 29 -42 -2 -62 -23 -15 -27 -15 -50 0 -31 20
-31 31 -3 61 26 28 26 28 55 1z m120 0 c29 -27 29 -35 -2 -64 l-24 -22 -26 20
c-31 24 -31 35 -3 65 26 28 26 28 55 1z m120 0 c29 -28 29 -42 -2 -62 -23 -15
-27 -15 -50 0 -31 20 -31 31 -3 61 26 28 26 28 55 1z m120 0 c30 -28 29 -42
-3 -63 -23 -15 -27 -15 -50 0 -30 19 -30 32 -2 62 26 28 26 28 55 1z m120 0
c30 -28 29 -42 -2 -62 -24 -16 -27 -16 -50 1 -30 22 -31 31 -3 60 26 28 26 28
55 1z m-2819 -77 c28 -24 28 -32 -3 -61 l-26 -24 -26 27 -27 26 24 26 c28 30
29 30 58 6z m120 0 c28 -24 28 -32 -3 -61 l-25 -23 -25 23 c-14 13 -25 28 -25
33 0 9 40 46 50 46 3 0 15 -8 28 -18z m120 0 c28 -24 28 -32 -3 -61 l-26 -24
-26 27 -27 26 24 26 c28 30 29 30 58 6z m120 0 c29 -25 28 -42 -4 -65 -26 -18
-26 -18 -52 7 l-26 26 24 26 c28 30 29 30 58 6z m120 0 c28 -24 28 -32 -3 -61
l-26 -24 -26 27 -27 26 24 26 c28 30 29 30 58 6z m120 0 c28 -25 28 -42 -4
-65 -25 -18 -26 -18 -50 5 -13 12 -24 27 -24 32 0 9 40 46 50 46 3 0 15 -8 28
-18z m120 0 c29 -25 28 -42 -4 -65 -26 -18 -26 -18 -52 7 l-26 26 24 26 c28
30 29 30 58 6z m120 0 c28 -25 28 -42 -4 -65 -25 -18 -26 -18 -50 5 -13 12
-24 27 -24 32 0 9 40 46 50 46 3 0 15 -8 28 -18z m120 0 c28 -24 28 -42 -3
-64 -24 -17 -26 -17 -50 0 -30 22 -31 31 -3 60 26 27 27 28 56 4z m240 0 c28
-24 28 -32 -2 -60 -23 -22 -25 -22 -50 -6 -14 10 -26 24 -26 32 0 13 37 52 50
52 3 0 15 -8 28 -18z m240 0 c28 -24 28 -42 -3 -64 -24 -17 -26 -17 -50 0 -13
10 -25 24 -25 31 0 13 38 51 50 51 3 0 15 -8 28 -18z m119 -3 c29 -27 29 -38
-2 -61 -24 -17 -26 -17 -50 0 -30 22 -31 31 -3 60 26 28 26 28 55 1z m121 3
c28 -24 28 -42 -3 -64 -24 -17 -26 -17 -50 0 -13 10 -25 24 -25 31 0 13 38 51
50 51 3 0 15 -8 28 -18z m119 -3 c29 -27 29 -38 -3 -62 -26 -18 -26 -18 -52 7
l-26 26 24 26 c29 30 28 30 57 3z m121 3 c28 -24 28 -42 -3 -64 -24 -17 -26
-17 -50 0 -13 10 -25 24 -25 31 0 13 38 51 50 51 3 0 15 -8 28 -18z m120 0
c29 -25 28 -42 -4 -65 -26 -18 -26 -18 -52 7 l-26 26 24 26 c28 30 29 30 58 6z
m120 0 c28 -24 28 -42 -3 -64 -24 -17 -26 -17 -50 0 -31 23 -32 46 -2 66 28
20 28 20 55 -2z m120 0 c28 -24 28 -32 -3 -61 l-26 -24 -26 27 -27 26 24 26
c28 30 29 30 58 6z m119 -3 c29 -27 29 -38 -3 -62 -25 -18 -26 -18 -50 5 -30
28 -30 36 -1 60 28 23 26 23 54 -3z m121 3 c28 -24 28 -32 -2 -60 -24 -23 -25
-23 -50 -5 -31 23 -32 31 -4 61 26 27 27 28 56 4z m119 -3 c29 -27 29 -38 -3
-62 -25 -18 -26 -18 -50 5 -30 28 -30 36 -1 60 28 23 26 23 54 -3z m123 -3
l24 -26 -27 -27 -27 -27 -27 27 -27 27 24 26 c13 14 26 25 30 25 4 0 17 -11
30 -25z m-2680 -100 c0 -6 -11 -22 -25 -35 l-25 -23 -25 23 c-32 30 -31 39 3
66 l27 22 23 -21 c12 -11 22 -26 22 -32z m240 -2 c0 -5 -11 -20 -25 -33 l-25
-23 -25 23 c-31 29 -31 39 0 66 l26 22 24 -23 c14 -12 25 -27 25 -32z m2520 3
c0 -7 -11 -23 -25 -36 l-25 -23 -25 23 c-31 29 -31 38 -2 66 22 21 22 21 50 2
15 -11 27 -25 27 -32z m-2658 27 c24 -22 23 -35 -7 -63 l-25 -23 -25 23 c-31
29 -31 43 -2 63 29 20 37 21 59 0z m236 1 c28 -20 28 -35 -3 -64 l-25 -23 -25
23 c-31 29 -31 43 -2 63 28 20 28 20 55 1z m124 -1 c24 -22 23 -35 -7 -63
l-25 -23 -25 23 c-31 29 -31 43 -2 63 29 20 37 21 59 0z m116 1 c28 -20 28
-35 -3 -64 l-25 -23 -25 23 c-14 13 -25 29 -25 36 0 12 37 44 50 44 3 0 16 -7
28 -16z m120 0 c28 -20 28 -35 -3 -64 l-25 -23 -25 23 c-31 29 -31 43 -2 63
28 20 28 20 55 1z m120 0 c28 -20 28 -35 -3 -64 l-25 -23 -25 23 c-14 13 -25
29 -25 36 0 12 37 44 50 44 3 0 16 -7 28 -16z m120 0 c28 -20 28 -35 -3 -64
l-25 -23 -25 23 c-31 29 -31 37 -2 61 27 23 27 23 55 3z m120 0 c28 -20 28
-35 -3 -64 l-25 -23 -25 23 c-14 13 -25 29 -25 36 0 12 37 44 50 44 3 0 16 -7
28 -16z m120 0 c28 -20 28 -35 -3 -64 l-25 -23 -25 23 c-31 29 -31 43 -2 63
28 20 28 20 55 1z m122 -1 c26 -23 25 -35 -5 -63 l-25 -23 -25 23 c-31 29 -31
44 -3 64 28 20 33 20 58 -1z m118 1 c28 -20 28 -35 -3 -64 l-25 -23 -25 23
c-31 29 -31 43 -2 63 28 20 28 20 55 1z m117 0 c31 -21 31 -35 0 -64 l-25 -23
-25 23 c-31 29 -31 44 -3 64 27 19 23 19 53 0z m123 0 c28 -20 28 -35 -3 -64
l-25 -23 -25 23 c-14 13 -25 29 -25 36 0 12 37 44 50 44 3 0 16 -7 28 -16z
m117 0 c31 -21 31 -35 0 -64 l-25 -23 -25 23 c-31 29 -31 44 -3 64 27 19 23
19 53 0z m127 -1 c24 -22 23 -35 -7 -63 l-25 -23 -25 23 c-31 29 -31 44 -3 64
28 20 37 20 60 -1z m113 1 c31 -21 31 -35 0 -64 l-25 -23 -25 23 c-31 29 -31
44 -3 64 27 19 23 19 53 0z m127 -1 c24 -22 23 -35 -7 -63 l-25 -23 -25 23
c-30 28 -31 37 -7 61 22 23 41 23 64 2z m113 1 c31 -21 31 -35 0 -64 l-25 -23
-25 23 c-29 28 -31 37 -8 62 20 22 27 22 58 2z m123 0 c28 -20 28 -35 -3 -64
l-25 -23 -25 23 c-31 29 -31 43 -2 63 28 20 28 20 55 1z m122 -1 c26 -23 25
-35 -5 -63 l-25 -23 -25 23 c-29 28 -31 37 -8 62 20 23 37 23 63 1z m115 1
c31 -21 31 -35 0 -64 l-25 -23 -25 23 c-31 29 -31 43 -2 63 28 20 23 20 52 1z
m-2698 -76 c29 -27 29 -39 -2 -68 l-25 -23 -25 23 c-31 29 -31 37 -3 67 26 28
26 28 55 1z m120 0 c29 -27 29 -39 -2 -68 l-25 -23 -25 23 c-31 29 -31 37 -3
67 26 28 26 28 55 1z m120 0 c29 -27 29 -39 -2 -68 l-25 -23 -25 23 c-31 29
-31 37 -3 67 26 28 26 28 55 1z m120 0 c29 -27 29 -39 -2 -68 l-25 -23 -25 23
c-31 29 -31 37 -3 67 26 28 26 28 55 1z m120 0 c29 -27 29 -39 -2 -68 l-25
-23 -25 23 c-31 29 -31 37 -3 67 26 28 26 28 55 1z m120 0 c29 -27 29 -39 -2
-68 l-25 -23 -25 23 c-31 29 -31 37 -3 67 26 28 26 28 55 1z m120 0 c29 -27
29 -39 -2 -68 l-25 -23 -25 23 c-31 29 -31 37 -3 67 26 28 26 28 55 1z m120 0
c29 -27 29 -39 -2 -68 l-25 -23 -25 23 c-31 29 -31 37 -3 67 26 28 26 28 55 1z
m120 0 c29 -27 29 -39 -2 -68 l-25 -23 -25 23 c-31 29 -31 37 -3 67 26 28 26
28 55 1z m120 0 c29 -27 29 -39 -2 -68 l-25 -23 -25 23 c-31 29 -31 37 -3 67
26 28 26 28 55 1z m120 0 c29 -27 29 -39 -2 -68 l-25 -23 -25 23 c-31 29 -31
37 -3 67 26 28 26 28 55 1z m120 0 c29 -27 29 -39 -2 -68 l-25 -23 -25 23
c-31 29 -31 37 -3 67 26 28 26 28 55 1z m120 0 c29 -27 29 -39 -2 -68 l-25
-23 -25 23 c-31 29 -31 37 -3 67 26 28 26 28 55 1z m120 0 c29 -27 29 -39 -2
-68 l-25 -23 -25 23 c-31 29 -31 37 -3 67 26 28 26 28 55 1z m120 0 c29 -27
29 -39 -2 -68 l-25 -23 -25 23 c-31 29 -31 37 -3 67 26 28 26 28 55 1z m120 0
c29 -27 29 -39 -2 -68 l-25 -23 -25 23 c-31 29 -31 37 -3 67 26 28 26 28 55 1z
m120 0 c29 -27 29 -39 -2 -68 l-25 -23 -25 23 c-31 29 -31 37 -3 67 26 28 26
28 55 1z m120 0 c29 -27 29 -39 -2 -68 l-25 -23 -25 23 c-31 29 -31 37 -3 67
26 28 26 28 55 1z m120 0 c29 -27 29 -39 -2 -68 l-25 -23 -25 23 c-31 29 -31
37 -3 67 26 28 26 28 55 1z m120 0 c29 -27 29 -39 -2 -68 l-25 -23 -25 23
c-31 29 -31 37 -3 67 26 28 26 28 55 1z m120 0 c29 -27 29 -39 -2 -68 l-25
-23 -25 23 c-31 29 -31 37 -3 67 26 28 26 28 55 1z m120 0 c29 -27 29 -39 -2
-68 l-25 -23 -25 23 c-31 29 -31 37 -3 67 26 28 26 28 55 1z m120 0 c29 -27
29 -39 -2 -68 l-25 -23 -25 23 c-31 29 -31 37 -3 67 26 28 26 28 55 1z m120 0
c29 -27 29 -39 -2 -68 l-25 -23 -25 23 c-31 29 -31 37 -3 67 26 28 26 28 55 1z
m-2700 -80 c29 -27 29 -39 -2 -68 l-25 -23 -25 23 c-31 29 -31 37 -3 67 26 28
26 28 55 1z m120 0 c29 -27 29 -39 -2 -68 l-25 -23 -25 23 c-31 29 -31 37 -3
67 26 28 26 28 55 1z m120 0 c29 -27 29 -39 -2 -68 l-25 -23 -25 23 c-31 29
-31 37 -3 67 26 28 26 28 55 1z m120 0 c29 -27 29 -39 -2 -68 l-25 -23 -25 23
c-31 29 -31 37 -3 67 26 28 26 28 55 1z m120 0 c29 -27 29 -39 -2 -68 l-25
-23 -25 23 c-31 29 -31 37 -3 67 26 28 26 28 55 1z m120 0 c29 -27 29 -39 -2
-68 l-25 -23 -25 23 c-31 29 -31 37 -3 67 26 28 26 28 55 1z m120 0 c29 -27
29 -39 -2 -68 l-25 -23 -25 23 c-31 29 -31 37 -3 67 26 28 26 28 55 1z m120 0
c29 -27 29 -39 -2 -68 l-25 -23 -25 23 c-31 29 -31 37 -3 67 26 28 26 28 55 1z
m120 0 c29 -27 29 -39 -2 -68 l-25 -23 -25 23 c-31 29 -31 37 -3 67 26 28 26
28 55 1z m120 0 c29 -27 29 -39 -2 -68 l-25 -23 -25 23 c-31 29 -31 37 -3 67
26 28 26 28 55 1z m120 0 c29 -27 29 -39 -2 -68 l-25 -23 -25 23 c-31 29 -31
37 -3 67 26 28 26 28 55 1z m120 0 c29 -27 29 -39 -2 -68 l-25 -23 -25 23
c-31 29 -31 37 -3 67 26 28 26 28 55 1z m120 0 c29 -27 29 -39 -2 -68 l-25
-23 -25 23 c-31 29 -31 37 -3 67 26 28 26 28 55 1z m123 -2 c13 -15 20 -32 17
-40 -8 -20 -27 -21 -27 -1 0 8 -5 15 -11 15 -6 0 -8 -9 -3 -22 9 -32 12 -34
36 -19 17 11 23 9 44 -10 28 -27 30 -36 7 -61 -18 -20 -4 -25 15 -6 16 16 68
-33 59 -56 -9 -23 -27 -20 -27 4 0 11 -4 20 -10 20 -14 0 -12 -23 4 -45 12
-16 16 -17 29 -6 13 10 20 10 41 -6 30 -21 30 -23 11 -59 -17 -34 -19 -60 -5
-69 6 -4 10 6 10 22 0 15 5 35 10 43 8 13 14 11 36 -12 19 -18 25 -32 20 -45
-7 -16 -9 -16 -21 7 -8 15 -14 19 -14 10 -1 -26 16 -43 35 -36 18 7 64 -28 64
-49 0 -6 -11 -22 -25 -35 l-25 -23 -25 23 c-14 13 -25 32 -25 42 0 10 -4 18
-10 18 -20 0 -9 -37 20 -65 36 -35 37 -45 5 -75 l-25 -24 -30 29 c-27 26 -28
30 -15 45 8 9 15 22 15 28 0 22 -15 12 -29 -19 -13 -29 -12 -32 18 -63 38 -39
38 -49 4 -75 l-26 -21 -24 22 c-28 26 -29 40 -3 63 11 10 18 20 15 23 -3 3
-14 -3 -24 -12 -24 -22 -41 -13 -41 19 0 13 -4 27 -10 30 -16 10 -11 -35 7
-66 17 -29 17 -30 -11 -55 l-28 -27 -25 26 c-30 29 -25 57 9 57 21 1 21 2 5
11 -13 8 -22 7 -33 -2 -22 -18 -67 27 -59 58 4 17 2 21 -10 17 -8 -4 -15 -2
-15 4 0 5 18 17 40 26 22 9 40 20 40 25 0 6 -22 1 -50 -11 -53 -22 -57 -27
-38 -58 11 -17 9 -24 -15 -47 l-27 -28 -27 28 c-27 26 -27 28 -11 55 11 19 14
33 8 42 -8 12 -10 10 -10 -7 0 -12 -5 -25 -11 -28 -16 -10 -58 34 -54 56 5 27
-14 24 -24 -3 -5 -13 -18 -32 -30 -42 -22 -20 -22 -20 -49 7 -24 24 -25 30
-14 48 12 19 11 20 -7 14 -37 -11 -36 17 3 51 20 18 33 35 28 38 -6 3 -26 -13
-47 -35 -34 -38 -35 -42 -21 -58 22 -24 20 -34 -9 -61 l-25 -23 -25 23 c-32
30 -31 40 5 75 17 16 30 34 30 41 0 7 -13 24 -30 37 -36 31 -37 43 -7 68 31
26 40 23 34 -11 -4 -16 -3 -30 2 -30 16 0 22 49 9 70 -11 17 -9 23 15 47 l28
28 35 -37 c26 -29 34 -33 34 -20 0 10 -13 28 -30 40 -37 27 -38 41 -5 72 l25
23 25 -23 c31 -29 31 -44 3 -64 -12 -9 -19 -19 -15 -22 4 -4 15 0 25 9 10 10
32 17 48 17 16 0 36 5 44 11 11 8 5 9 -22 4 -46 -7 -51 10 -13 45 l25 23 25
-23 c29 -27 31 -42 10 -60 -8 -7 -15 -17 -15 -23 0 -5 9 -2 20 8 20 18 21 18
49 -9 16 -15 31 -23 35 -18 3 5 -8 19 -24 31 -37 26 -37 41 -5 71 l25 24 30
-29 c27 -26 28 -29 12 -41 -9 -7 -14 -16 -10 -20 9 -9 38 14 38 30 0 7 -13 25
-30 41 -36 34 -37 42 -8 72 27 29 29 29 58 -1z m117 2 c29 -27 29 -39 -2 -68
l-25 -23 -25 23 c-31 29 -31 37 -3 67 26 28 26 28 55 1z m120 0 c29 -27 29
-39 -2 -68 l-25 -23 -25 23 c-31 29 -31 37 -3 67 26 28 26 28 55 1z m120 0
c29 -27 29 -39 -2 -68 l-25 -23 -25 23 c-31 29 -31 37 -3 67 26 28 26 28 55 1z
m120 0 c29 -27 29 -39 -2 -68 l-25 -23 -25 23 c-31 29 -31 37 -3 67 26 28 26
28 55 1z m120 0 c29 -27 29 -39 -2 -68 l-25 -23 -25 23 c-31 29 -31 37 -3 67
26 28 26 28 55 1z m120 0 c29 -27 29 -39 -2 -68 l-25 -23 -25 23 c-31 29 -31
37 -3 67 26 28 26 28 55 1z m120 0 c29 -27 29 -39 -2 -68 l-25 -23 -25 23
c-31 29 -31 37 -3 67 26 28 26 28 55 1z m120 0 c29 -27 29 -39 -2 -68 l-25
-23 -25 23 c-31 29 -31 37 -3 67 26 28 26 28 55 1z m120 0 c29 -27 29 -39 -2
-68 l-25 -23 -25 23 c-31 29 -31 37 -3 67 26 28 26 28 55 1z m120 0 c29 -27
29 -39 -2 -68 l-25 -23 -25 23 c-31 29 -31 37 -3 67 26 28 26 28 55 1z m-2820
-80 c29 -27 29 -39 -2 -68 l-25 -23 -25 23 c-31 29 -31 37 -3 67 26 28 26 28
55 1z m120 0 c30 -28 29 -42 -4 -67 l-26 -21 -24 22 c-29 27 -29 36 -1 65 26
28 26 28 55 1z m120 0 c29 -27 29 -39 -2 -68 l-25 -23 -25 23 c-31 29 -31 37
-3 67 26 28 26 28 55 1z m120 0 c29 -27 29 -39 -2 -68 l-25 -23 -25 23 c-31
29 -31 37 -3 67 26 28 26 28 55 1z m120 0 c29 -27 29 -39 -2 -68 l-25 -23 -25
23 c-31 29 -31 37 -3 67 26 28 26 28 55 1z m120 0 c30 -28 29 -42 -4 -67 l-26
-21 -24 22 c-29 27 -29 36 -1 65 26 28 26 28 55 1z m120 0 c29 -27 29 -39 -2
-68 l-25 -23 -25 23 c-31 29 -31 37 -3 67 26 28 26 28 55 1z m120 0 c29 -27
29 -39 -2 -68 l-25 -23 -25 23 c-31 29 -31 37 -3 67 26 28 26 28 55 1z m120 0
c29 -27 29 -39 -2 -68 l-25 -23 -25 23 c-31 29 -31 37 -3 67 26 28 26 28 55 1z
m120 0 c29 -27 29 -39 -2 -68 l-25 -23 -25 23 c-31 29 -31 37 -3 67 26 28 26
28 55 1z m120 0 c29 -27 29 -39 -2 -68 l-25 -23 -25 23 c-31 29 -31 37 -3 67
26 28 26 28 55 1z m600 0 c29 -27 29 -39 -2 -68 l-25 -23 -25 23 c-31 29 -31
37 -3 67 26 28 26 28 55 1z m120 0 c30 -28 29 -42 -6 -67 l-28 -20 -22 22
c-26 29 -26 35 1 64 26 28 26 28 55 1z m120 0 c29 -27 29 -39 -2 -68 l-25 -23
-25 23 c-31 29 -31 37 -3 67 26 28 26 28 55 1z m120 0 c30 -28 29 -42 -4 -67
l-26 -21 -24 22 c-29 27 -29 36 -1 65 26 28 26 28 55 1z m120 0 c29 -27 29
-39 -2 -68 l-25 -23 -25 23 c-31 29 -31 37 -3 67 26 28 26 28 55 1z m120 0
c29 -27 29 -39 -2 -68 l-25 -23 -25 23 c-31 29 -31 37 -3 67 26 28 26 28 55 1z
m120 0 c29 -27 29 -39 -2 -68 l-25 -23 -25 23 c-31 29 -31 37 -3 67 26 28 26
28 55 1z m120 0 c30 -28 29 -42 -4 -67 l-26 -21 -24 22 c-29 27 -29 36 -1 65
26 28 26 28 55 1z m120 0 c29 -27 29 -39 -2 -68 l-25 -23 -25 23 c-31 29 -31
37 -3 67 26 28 26 28 55 1z m-2699 -77 c28 -24 28 -42 -3 -64 -24 -17 -26 -17
-50 0 -30 22 -31 31 -3 60 26 27 27 28 56 4z m120 0 c29 -25 28 -47 -2 -66
-23 -15 -27 -15 -50 0 -32 21 -32 32 -4 62 26 27 27 28 56 4z m119 -3 c30 -28
29 -42 -2 -62 -24 -16 -27 -16 -50 1 -30 22 -31 31 -3 60 26 28 26 28 55 1z
m121 3 c29 -25 28 -45 -3 -65 -23 -15 -27 -15 -50 0 -31 20 -31 31 -3 61 26
27 27 28 56 4z m119 -3 c29 -27 29 -38 -2 -61 -23 -17 -26 -17 -50 -1 -31 20
-31 31 -3 61 26 28 26 28 55 1z m120 0 c29 -27 29 -44 -1 -63 -23 -15 -27 -15
-50 0 -32 21 -32 32 -4 62 26 28 26 28 55 1z m120 0 c29 -27 29 -38 -2 -61
-24 -17 -26 -17 -50 0 -30 22 -31 31 -3 60 26 28 26 28 55 1z m121 3 c29 -25
28 -45 -3 -65 -30 -20 -27 -20 -53 3 -27 23 -27 29 0 58 26 27 27 28 56 4z
m119 -3 c29 -27 29 -38 -2 -61 -24 -17 -26 -17 -50 0 -30 22 -31 31 -3 60 26
28 26 28 55 1z m121 3 c29 -25 28 -47 -2 -66 -23 -15 -27 -15 -50 0 -32 21
-32 32 -4 62 26 27 27 28 56 4z m719 -3 c29 -28 29 -42 -2 -62 -23 -15 -27
-15 -50 0 -31 20 -31 31 -3 61 26 28 26 28 55 1z m120 0 c29 -28 29 -42 -2
-62 -23 -15 -27 -15 -50 0 -31 20 -31 31 -3 61 26 28 26 28 55 1z m121 3 c29
-25 28 -37 -8 -68 -16 -13 -30 -30 -30 -37 0 -7 -11 -23 -25 -36 l-25 -23 -25
23 c-31 29 -31 40 1 63 24 18 26 18 45 1 10 -9 22 -14 27 -10 4 5 -3 15 -15
23 -29 19 -29 31 -1 60 26 27 27 28 56 4z m119 -3 c29 -27 29 -38 -2 -61 -23
-17 -26 -17 -50 -1 -31 20 -32 40 -2 65 28 23 26 23 54 -3z m120 0 c30 -28 29
-40 -7 -66 -16 -13 -30 -28 -30 -36 0 -7 -11 -23 -25 -36 l-26 -24 -27 27 -27
27 27 27 c27 26 28 26 48 8 11 -10 23 -15 28 -11 4 4 -3 16 -15 26 -28 23 -28
28 -1 57 26 28 26 28 55 1z m120 0 c29 -28 29 -42 -2 -62 -23 -15 -27 -15 -50
0 -31 20 -32 40 -2 65 28 23 26 23 54 -3z m120 0 c29 -27 29 -38 -2 -61 -24
-17 -26 -17 -50 0 -30 22 -31 31 -3 60 26 28 26 28 55 1z m120 0 c29 -28 29
-42 -2 -62 -23 -15 -27 -15 -50 0 -31 20 -31 31 -3 61 26 28 26 28 55 1z
m-2699 -77 c28 -24 28 -32 -3 -61 l-25 -23 -25 23 c-14 13 -25 28 -25 33 0 9
40 46 50 46 3 0 15 -8 28 -18z m117 3 c32 -21 31 -34 0 -64 l-26 -24 -26 27
-27 26 24 26 c28 30 24 29 55 9z m123 -3 c28 -24 28 -32 -3 -61 l-25 -23 -25
23 c-14 13 -25 28 -25 33 0 9 40 46 50 46 3 0 15 -8 28 -18z m117 3 c31 -21
31 -35 0 -64 l-25 -23 -25 23 c-31 29 -31 37 -2 61 27 23 23 22 52 3z m123 -3
c28 -24 28 -32 -3 -61 l-25 -23 -25 23 c-31 29 -31 43 -2 63 28 20 28 20 55
-2z m117 3 c31 -21 31 -35 0 -64 l-25 -23 -25 23 c-31 29 -31 37 -2 61 27 23
23 22 52 3z m123 -3 c28 -24 28 -32 -3 -61 l-25 -23 -25 23 c-31 29 -31 43 -2
63 28 20 28 20 55 -2z m120 0 c28 -24 28 -32 -3 -61 l-25 -23 -25 23 c-14 13
-25 28 -25 33 0 9 40 46 50 46 3 0 15 -8 28 -18z m120 0 c28 -24 28 -32 -2
-60 -24 -23 -25 -23 -50 -5 -14 11 -26 25 -26 32 0 13 38 51 50 51 3 0 15 -8
28 -18z m120 0 c28 -24 28 -32 -3 -61 l-25 -23 -25 23 c-14 13 -25 28 -25 33
0 9 40 46 50 46 3 0 15 -8 28 -18z m840 0 c28 -24 28 -32 -3 -61 l-25 -23 -25
23 c-31 29 -31 43 -2 63 28 20 28 20 55 -2z m237 3 c31 -21 31 -35 0 -64 l-25
-23 -25 23 c-31 29 -31 43 -2 63 28 20 23 20 52 1z m240 0 c31 -21 31 -35 0
-64 l-25 -23 -25 23 c-31 29 -31 37 -2 61 27 23 23 22 52 3z m123 -3 c28 -24
28 -32 -3 -61 l-25 -23 -25 23 c-14 13 -25 28 -25 33 0 9 40 46 50 46 3 0 15
-8 28 -18z m117 3 c31 -21 31 -35 0 -64 l-25 -23 -25 23 c-31 29 -31 37 -2 61
27 23 23 22 52 3z m123 -3 c28 -24 28 -32 -3 -61 l-25 -23 -25 23 c-14 13 -25
28 -25 33 0 9 40 46 50 46 3 0 15 -8 28 -18z m-2701 -73 c29 -27 29 -39 -2
-68 l-25 -23 -25 23 c-31 29 -31 38 -2 67 28 27 26 27 54 1z m143 -33 c0 -6
-11 -22 -25 -35 l-25 -23 -25 23 c-32 30 -31 39 2 67 l26 23 24 -22 c13 -12
23 -27 23 -33z m120 -2 c0 -5 -11 -20 -25 -33 l-25 -23 -25 23 c-32 30 -31 43
0 68 l26 20 24 -22 c14 -13 25 -28 25 -33z m120 1 c0 -6 -7 -17 -15 -24 -12
-10 -15 -10 -15 4 0 9 -4 16 -9 16 -5 0 -7 -9 -4 -20 6 -22 23 -26 41 -8 15
15 57 -22 66 -58 8 -32 30 -31 24 1 -4 17 2 31 19 47 l24 22 27 -27 c21 -22
25 -31 16 -44 -6 -10 -22 -20 -35 -24 -21 -5 -22 -7 -6 -14 12 -5 25 -1 37 10
20 18 21 17 45 -5 31 -29 31 -41 0 -70 -20 -18 -28 -21 -37 -12 -19 19 -33 14
-15 -6 23 -25 21 -34 -8 -62 l-24 -23 -25 24 c-15 14 -26 35 -26 51 0 19 -4
26 -14 22 -8 -3 -17 -1 -21 5 -3 6 -11 11 -17 11 -6 0 -2 -10 10 -23 29 -30
28 -41 -5 -67 l-27 -21 -25 26 c-22 22 -24 28 -13 45 15 24 16 50 2 50 -5 0
-10 -9 -10 -20 0 -27 -12 -25 -40 4 -13 15 -20 32 -17 40 4 9 2 16 -4 16 -5 0
-13 -10 -18 -22 -5 -13 -18 -32 -30 -42 -21 -19 -22 -19 -46 4 -31 29 -31 37
-3 67 26 28 42 30 35 3 -3 -11 -1 -20 3 -20 18 0 22 23 9 46 -11 22 -10 27 13
51 26 25 27 26 52 9 33 -21 33 -34 -1 -39 -27 -4 -26 -4 4 -6 46 -2 52 18 15
49 -39 32 -40 43 -5 69 l26 21 24 -22 c12 -12 23 -27 23 -34z m120 1 c0 -6
-11 -22 -25 -35 l-25 -23 -25 23 c-32 30 -31 39 2 67 l26 23 24 -22 c13 -12
23 -27 23 -33z m97 33 c29 -27 29 -39 -2 -68 l-25 -23 -25 23 c-31 29 -31 37
-3 67 26 28 26 28 55 1z m137 -21 c9 -13 5 -23 -16 -44 l-27 -27 -26 24 c-31
29 -31 37 -2 65 18 18 25 20 41 10 11 -6 25 -19 30 -28z m103 21 c29 -27 29
-39 -2 -68 l-25 -23 -25 23 c-31 29 -31 37 -3 67 26 28 26 28 55 1z m256 -15
c16 -19 16 -21 -13 -48 l-30 -29 -25 24 c-31 29 -31 37 -4 66 23 25 40 22 72
-13z m847 -18 c0 -6 -11 -22 -25 -35 l-25 -23 -25 23 c-32 30 -31 44 3 68 l27
21 23 -21 c12 -12 22 -27 22 -33z m94 31 c32 -29 32 -37 1 -66 l-25 -23 -25
23 c-14 13 -25 28 -25 34 0 8 39 56 46 56 2 0 14 -11 28 -24z m146 -31 c0 -6
-11 -22 -25 -35 l-25 -23 -25 23 c-32 30 -31 43 2 69 l26 21 24 -22 c12 -12
23 -27 23 -33z m120 0 c0 -6 -11 -22 -25 -35 l-25 -23 -25 23 c-30 29 -31 37
-4 66 l21 23 29 -21 c16 -12 29 -27 29 -33z m120 0 c0 -6 -11 -22 -25 -35
l-25 -23 -25 23 c-32 30 -31 43 2 69 l26 21 24 -22 c12 -12 23 -27 23 -33z
m217 33 c29 -27 29 -39 -2 -68 l-25 -23 -25 23 c-31 29 -31 38 -2 67 28 27 26
27 54 1z m143 -32 c0 -7 -11 -23 -25 -36 l-25 -23 -25 23 c-31 29 -31 37 -4
67 l22 22 28 -20 c16 -11 29 -26 29 -33z m-1818 27 c24 -22 23 -35 -7 -63
l-25 -23 -25 23 c-29 28 -31 37 -8 62 20 22 41 23 65 1z m1556 1 c28 -20 28
-35 -3 -64 l-25 -23 -25 23 c-29 28 -31 37 -8 62 20 22 32 23 61 2z m-2581
-76 c29 -27 29 -39 -2 -68 l-25 -23 -25 23 c-31 29 -31 37 -3 67 26 28 26 28
55 1z m120 0 c29 -27 29 -39 -2 -68 l-25 -23 -25 23 c-31 29 -31 37 -3 67 26
28 26 28 55 1z m120 0 c29 -27 29 -39 -2 -68 l-25 -23 -25 23 c-31 29 -31 37
-3 67 26 28 26 28 55 1z m480 0 c29 -27 29 -39 -2 -68 l-25 -23 -25 23 c-31
29 -31 37 -3 67 26 28 26 28 55 1z m120 0 c29 -27 29 -39 -2 -68 l-25 -23 -25
23 c-31 29 -31 37 -3 67 26 28 26 28 55 1z m120 0 c29 -27 29 -39 -2 -68 l-25
-23 -25 23 c-31 29 -31 37 -3 67 26 28 26 28 55 1z m120 0 c29 -27 29 -39 -2
-68 l-25 -23 -25 23 c-31 29 -31 37 -3 67 26 28 26 28 55 1z m960 0 c29 -27
29 -39 -2 -68 l-25 -23 -25 23 c-31 29 -31 37 -3 67 26 28 26 28 55 1z m120 0
c29 -27 29 -39 -2 -68 l-25 -23 -25 23 c-31 29 -31 37 -3 67 26 28 26 28 55 1z
m120 0 c29 -27 29 -39 -2 -68 l-25 -23 -25 23 c-31 29 -31 37 -3 67 26 28 26
28 55 1z m120 0 c29 -27 29 -39 -2 -68 l-25 -23 -25 23 c-31 29 -31 37 -3 67
26 28 26 28 55 1z m120 0 c29 -27 29 -39 -2 -68 l-25 -23 -25 23 c-31 29 -31
37 -3 67 26 28 26 28 55 1z m120 0 c29 -27 29 -39 -2 -68 l-25 -23 -25 23
c-31 29 -31 37 -3 67 26 28 26 28 55 1z m120 0 c29 -27 29 -39 -2 -68 l-25
-23 -25 23 c-31 29 -31 37 -3 67 26 28 26 28 55 1z m-2700 -80 c29 -27 29 -39
-2 -68 l-25 -23 -25 23 c-31 29 -31 37 -3 67 26 28 26 28 55 1z m120 0 c29
-27 29 -39 -2 -68 l-25 -23 -25 23 c-31 29 -31 37 -3 67 26 28 26 28 55 1z
m600 0 c29 -27 29 -39 -2 -68 l-25 -23 -25 23 c-31 29 -31 37 -3 67 26 28 26
28 55 1z m120 0 c29 -27 29 -39 -2 -68 l-25 -23 -25 23 c-31 29 -31 37 -3 67
26 28 26 28 55 1z m120 0 c29 -27 29 -39 -2 -68 l-25 -23 -25 23 c-31 29 -31
37 -3 67 26 28 26 28 55 1z m120 0 c29 -27 29 -39 -2 -68 l-25 -23 -25 23
c-31 29 -31 37 -3 67 26 28 26 28 55 1z m120 0 c29 -27 29 -39 -2 -68 l-25
-23 -25 23 c-31 29 -31 37 -3 67 26 28 26 28 55 1z m120 0 c29 -27 29 -39 -2
-68 l-25 -23 -25 23 c-31 29 -31 37 -3 67 26 28 26 28 55 1z m600 0 c29 -27
29 -39 -2 -68 l-25 -23 -25 23 c-31 29 -31 37 -3 67 26 28 26 28 55 1z m120 0
c29 -27 29 -39 -2 -68 l-25 -23 -25 23 c-31 29 -31 37 -3 67 26 28 26 28 55 1z
m120 0 c29 -27 29 -39 -2 -68 l-25 -23 -25 23 c-31 29 -31 37 -3 67 26 28 26
28 55 1z m120 0 c29 -27 29 -39 -2 -68 l-25 -23 -25 23 c-31 29 -31 37 -3 67
26 28 26 28 55 1z m120 0 c29 -27 29 -39 -2 -68 l-25 -23 -25 23 c-31 29 -31
37 -3 67 26 28 26 28 55 1z m120 0 c29 -27 29 -39 -2 -68 l-25 -23 -25 23
c-31 29 -31 37 -3 67 26 28 26 28 55 1z m120 0 c29 -27 29 -39 -2 -68 l-25
-23 -25 23 c-31 29 -31 37 -3 67 26 28 26 28 55 1z m120 0 c29 -27 29 -39 -2
-68 l-25 -23 -25 23 c-31 29 -31 37 -3 67 26 28 26 28 55 1z m-2820 -80 c29
-27 29 -39 0 -66 l-24 -22 -26 21 c-33 25 -33 36 -5 66 26 28 26 28 55 1z
m120 0 c29 -27 29 -39 0 -66 l-24 -22 -26 23 c-33 27 -33 34 -5 64 26 28 26
28 55 1z m120 0 c29 -27 29 -39 -2 -68 l-25 -23 -25 23 c-31 29 -31 37 -3 67
26 28 26 28 55 1z m120 0 c29 -27 29 -39 0 -66 l-24 -22 -26 21 c-33 25 -33
36 -5 66 26 28 26 28 55 1z m360 0 c30 -28 29 -42 -4 -67 l-26 -21 -24 22
c-29 27 -29 36 -1 65 26 28 26 28 55 1z m120 0 c30 -28 29 -42 -4 -67 l-26
-21 -24 22 c-29 27 -29 36 -1 65 26 28 26 28 55 1z m120 0 c30 -28 29 -42 -4
-67 l-26 -21 -24 22 c-29 27 -29 36 -1 65 26 28 26 28 55 1z m120 0 c29 -27
29 -39 -2 -68 l-25 -23 -25 23 c-31 29 -31 37 -3 67 26 28 26 28 55 1z m120 0
c30 -28 29 -40 -7 -68 -16 -13 -30 -31 -30 -40 0 -10 -11 -25 -25 -34 -24 -16
-27 -16 -50 1 -31 23 -31 34 0 63 24 23 25 23 45 5 11 -10 23 -15 27 -11 4 3
-3 13 -15 22 -28 19 -28 32 0 61 26 28 26 28 55 1z m120 0 c29 -27 29 -39 -2
-68 l-25 -23 -25 23 c-31 29 -31 37 -3 67 26 28 26 28 55 1z m120 0 c30 -28
29 -42 -4 -67 l-26 -21 -24 22 c-29 27 -29 36 -1 65 26 28 26 28 55 1z m120 0
c29 -27 29 -39 -2 -68 l-25 -23 -25 23 c-31 29 -31 37 -3 67 26 28 26 28 55 1z
m360 0 c30 -28 29 -42 -6 -67 l-28 -20 -22 22 c-26 29 -26 35 1 64 26 28 26
28 55 1z m120 0 c29 -27 29 -39 0 -66 l-24 -22 -26 21 c-33 25 -33 36 -5 66
26 28 26 28 55 1z m120 0 c30 -28 29 -42 -4 -67 l-26 -21 -24 22 c-29 27 -29
36 -1 65 26 28 26 28 55 1z m120 0 c30 -28 29 -42 -4 -67 l-26 -21 -24 22
c-29 27 -29 36 -1 65 26 28 26 28 55 1z m120 0 c29 -27 29 -39 -1 -67 l-24
-23 -26 23 c-32 27 -32 36 -4 66 26 28 26 28 55 1z m120 0 c30 -28 29 -42 -4
-67 l-26 -21 -24 22 c-29 27 -29 36 -1 65 26 28 26 28 55 1z m120 0 c29 -27
29 -37 -3 -67 l-25 -24 -24 23 c-31 29 -31 37 -3 67 26 28 26 28 55 1z m120 0
c30 -28 29 -42 -6 -67 l-28 -20 -22 22 c-26 29 -26 35 1 64 26 28 26 28 55 1z
m-2699 -77 c29 -25 28 -45 -3 -65 -24 -16 -27 -16 -50 1 -30 22 -31 31 -3 60
26 27 27 28 56 4z m120 0 c28 -24 28 -42 -3 -64 -24 -17 -26 -17 -50 0 -30 22
-31 31 -3 60 26 27 27 28 56 4z m120 0 c29 -25 28 -45 -3 -65 -24 -16 -27 -16
-50 1 -13 10 -25 24 -25 31 0 13 38 51 50 51 3 0 15 -8 28 -18z m120 0 c29
-25 28 -45 -3 -65 -23 -15 -27 -15 -50 0 -31 20 -31 31 -3 61 26 27 27 28 56
4z m120 0 c28 -24 28 -42 -3 -64 -24 -17 -26 -17 -50 0 -30 22 -31 31 -3 60
26 27 27 28 56 4z m120 0 c29 -25 28 -45 -3 -65 -24 -16 -27 -16 -50 1 -30 22
-31 31 -3 60 26 27 27 28 56 4z m120 0 c28 -24 28 -42 -3 -64 -24 -17 -26 -17
-50 0 -13 10 -25 24 -25 31 0 13 38 51 50 51 3 0 15 -8 28 -18z m120 0 c28
-24 28 -42 -3 -64 -24 -17 -26 -17 -50 0 -30 22 -31 31 -3 60 26 27 27 28 56
4z m120 0 c29 -25 28 -45 -3 -65 -24 -16 -27 -16 -50 1 -30 22 -31 31 -3 60
26 27 27 28 56 4z m239 -3 c29 -27 29 -38 -2 -61 -24 -17 -26 -17 -50 0 -31
22 -31 40 -2 64 28 23 26 23 54 -3z m121 3 c28 -24 28 -42 -3 -64 -24 -17 -26
-17 -50 0 -30 22 -31 31 -3 60 26 27 27 28 56 4z m119 -3 c30 -28 29 -42 -2
-62 -24 -16 -27 -16 -50 1 -30 22 -31 31 -3 60 26 28 26 28 55 1z m120 0 c29
-27 29 -38 -2 -61 -23 -17 -26 -17 -50 -1 -31 20 -31 31 -3 61 26 28 26 28 55
1z m121 3 c28 -24 28 -42 -3 -64 -24 -17 -26 -17 -50 0 -13 10 -25 24 -25 31
0 13 38 51 50 51 3 0 15 -8 28 -18z m120 0 c28 -24 28 -42 -3 -64 -23 -17 -26
-17 -50 -1 -31 20 -31 31 -3 61 26 27 27 28 56 4z m120 0 c28 -24 28 -42 -3
-64 -24 -17 -26 -17 -50 0 -13 10 -25 24 -25 31 0 13 38 51 50 51 3 0 15 -8
28 -18z m120 0 c28 -24 28 -42 -3 -64 -23 -17 -26 -17 -50 -1 -31 20 -31 31
-3 61 26 27 27 28 56 4z m119 -3 c29 -27 29 -38 -3 -61 -24 -18 -26 -18 -45
-1 -10 9 -22 14 -27 10 -4 -5 3 -15 16 -23 28 -20 28 -34 -3 -63 l-25 -23 -25
23 c-32 30 -31 36 5 67 17 13 30 32 30 40 0 13 36 52 49 53 3 0 15 -10 28 -22z
m121 3 c27 -24 28 -38 2 -46 -11 -3 -20 -10 -20 -15 0 -6 10 -6 25 0 15 6 26
6 30 0 8 -13 75 -13 75 -1 0 5 -15 8 -32 7 -43 -1 -50 31 -12 58 26 18 26 18
52 -7 24 -25 25 -27 9 -58 -8 -18 -13 -38 -9 -44 4 -5 8 -1 10 10 6 33 18 38
46 20 32 -22 33 -35 1 -65 -26 -25 -47 -21 -25 5 14 17 3 20 -20 5 -12 -7 -12
-12 0 -34 12 -24 11 -28 -10 -51 -25 -26 -40 -32 -40 -15 0 6 7 10 15 10 8 0
15 5 15 10 0 14 -13 13 -34 -3 -16 -12 -17 -16 -5 -35 12 -20 11 -25 -13 -49
l-27 -27 -26 24 -25 24 27 23 c16 12 23 22 16 23 -6 0 -15 -5 -18 -11 -4 -6
-13 -8 -21 -5 -9 3 -18 -3 -23 -17 -5 -12 -18 -31 -30 -41 -22 -20 -22 -20
-49 7 -24 24 -25 29 -13 49 12 19 11 20 -5 14 -18 -7 -64 28 -64 49 0 19 47
58 60 50 7 -4 10 -19 6 -36 -7 -36 9 -39 18 -3 5 17 2 32 -9 43 -21 24 -19 36
10 55 24 16 27 16 55 -4 39 -28 38 -34 -5 -26 -22 4 -35 3 -35 -4 0 -5 4 -10
9 -10 5 0 23 -3 40 -6 27 -6 31 -4 31 14 0 12 -13 31 -30 44 -16 12 -30 28
-30 36 0 12 38 51 50 51 3 0 15 -8 28 -18z m240 0 c28 -24 28 -42 -3 -64 -24
-17 -26 -17 -50 0 -30 22 -31 31 -3 60 26 27 27 28 56 4z m119 -3 c29 -27 29
-38 -2 -61 -24 -17 -26 -17 -50 0 -31 22 -31 40 -2 64 28 23 26 23 54 -3z
m121 3 c28 -24 28 -32 -2 -60 -23 -22 -25 -22 -50 -6 -14 10 -26 24 -26 32 0
13 37 52 50 52 3 0 15 -8 28 -18z m-2820 -80 c28 -24 28 -32 -3 -61 l-25 -23
-25 23 c-31 29 -31 43 -2 63 28 20 28 20 55 -2z m120 3 c28 -20 28 -35 -3 -64
l-25 -23 -25 23 c-31 29 -31 37 -2 61 27 23 27 23 55 3z m120 -3 c28 -24 28
-32 -3 -61 l-25 -23 -25 23 c-31 29 -31 44 -3 64 28 20 28 20 56 -3z m117 3
c31 -21 31 -35 0 -64 l-25 -23 -25 23 c-31 29 -31 37 -2 61 27 23 23 22 52 3z
m123 -3 c28 -24 28 -32 -3 -61 l-25 -23 -25 23 c-31 29 -31 43 -2 63 28 20 28
20 55 -2z m117 3 c31 -21 31 -35 0 -64 l-25 -23 -25 23 c-31 29 -31 37 -2 61
27 23 23 22 52 3z m120 0 c31 -21 31 -35 0 -64 l-25 -23 -25 23 c-31 29 -31
43 -2 63 28 20 23 20 52 1z m120 0 c31 -21 31 -35 0 -64 l-25 -23 -25 23 c-31
29 -31 37 -2 61 27 23 23 22 52 3z m123 -3 c28 -24 28 -32 -3 -61 l-25 -23
-25 23 c-31 29 -31 43 -2 63 28 20 28 20 55 -2z m120 3 c28 -20 28 -35 -3 -64
l-25 -23 -25 23 c-31 29 -31 37 -2 61 27 23 27 23 55 3z m117 0 c31 -21 31
-35 0 -64 l-25 -23 -25 23 c-31 29 -31 43 -2 63 28 20 23 20 52 1z m120 0 c31
-21 31 -35 0 -64 l-25 -23 -25 23 c-31 29 -31 43 -2 63 28 20 23 20 52 1z
m120 0 c31 -21 31 -35 0 -64 l-25 -23 -25 23 c-31 29 -31 44 -3 64 27 19 23
19 53 0z m120 0 c31 -21 31 -35 0 -64 l-25 -23 -25 23 c-31 29 -31 43 -2 63
28 20 23 20 52 1z m120 0 c31 -21 31 -35 0 -64 l-25 -23 -25 23 c-30 28 -31
37 -7 61 22 22 27 23 57 3z m120 0 c31 -21 31 -35 0 -64 l-25 -23 -25 23 c-31
29 -31 37 -2 61 27 23 23 22 52 3z m120 0 c31 -21 31 -35 0 -64 l-25 -23 -25
23 c-31 29 -31 43 -2 63 28 20 23 20 52 1z m120 0 c31 -21 31 -35 0 -64 l-25
-23 -25 23 c-31 29 -31 43 -2 63 28 20 23 20 52 1z m600 0 c31 -21 31 -35 0
-64 l-25 -23 -25 23 c-31 29 -31 43 -2 63 28 20 23 20 52 1z m123 -3 c28 -24
28 -32 -3 -61 l-25 -23 -25 23 c-31 29 -31 43 -2 63 28 20 28 20 55 -2z
m-2701 -73 c29 -27 29 -39 -2 -68 l-25 -23 -25 23 c-31 29 -31 37 -3 67 26 28
26 28 55 1z m120 0 c29 -27 29 -39 -2 -68 l-25 -23 -25 23 c-31 29 -31 37 -3
67 26 28 26 28 55 1z m120 0 c29 -27 29 -39 -2 -68 l-25 -23 -25 23 c-31 29
-31 37 -3 67 26 28 26 28 55 1z m120 0 c29 -27 29 -39 -2 -68 l-25 -23 -25 23
c-31 29 -31 37 -3 67 26 28 26 28 55 1z m240 0 c29 -27 29 -39 -2 -68 l-25
-23 -25 23 c-31 29 -31 37 -3 67 26 28 26 28 55 1z m120 0 c29 -27 29 -39 -2
-68 l-25 -23 -25 23 c-31 29 -31 38 -2 67 28 27 26 27 54 1z m120 0 c29 -27
29 -39 -2 -68 l-25 -23 -25 23 c-31 29 -31 37 -3 67 26 28 26 28 55 1z m120 0
c29 -27 29 -39 -2 -68 l-25 -23 -25 23 c-31 29 -31 37 -3 67 26 28 26 28 55 1z
m120 0 c29 -27 29 -39 -2 -68 l-25 -23 -25 23 c-31 29 -31 37 -3 67 26 28 26
28 55 1z m120 0 c29 -27 29 -39 -2 -68 l-25 -23 -25 23 c-31 29 -31 37 -3 67
26 28 26 28 55 1z m120 0 c29 -27 29 -39 -2 -68 l-25 -23 -25 23 c-31 29 -31
37 -3 67 26 28 26 28 55 1z m120 0 c29 -27 29 -39 -2 -68 l-25 -23 -25 23
c-31 29 -31 37 -3 67 26 28 26 28 55 1z m120 0 c29 -27 29 -39 -2 -68 l-25
-23 -25 23 c-31 29 -31 37 -3 67 26 28 26 28 55 1z m120 0 c29 -27 29 -39 -2
-68 l-25 -23 -25 23 c-31 29 -31 37 -3 67 26 28 26 28 55 1z m120 0 c29 -27
29 -39 -2 -68 l-25 -23 -25 23 c-31 29 -31 37 -3 67 26 28 26 28 55 1z m143
-33 c0 -6 -11 -22 -25 -35 l-25 -23 -25 23 c-32 30 -31 43 2 69 l26 21 24 -22
c12 -12 23 -27 23 -33z m97 33 c29 -27 29 -39 -2 -68 l-25 -23 -25 23 c-31 29
-31 37 -3 67 26 28 26 28 55 1z m480 0 c29 -27 29 -39 -2 -68 l-25 -23 -25 23
c-31 29 -31 37 -3 67 26 28 26 28 55 1z m120 0 c29 -27 29 -39 -2 -68 l-25
-23 -25 23 c-31 29 -31 37 -3 67 26 28 26 28 55 1z m137 -21 c9 -13 5 -23 -16
-44 l-27 -27 -26 24 c-31 29 -31 37 -3 67 19 20 24 21 42 10 11 -8 25 -21 30
-30z m-2292 16 c24 -22 23 -35 -7 -63 l-25 -23 -25 23 c-29 28 -31 37 -8 62
20 22 41 23 65 1z m-545 -75 c29 -27 29 -39 -2 -68 l-25 -23 -25 23 c-31 29
-31 37 -3 67 26 28 26 28 55 1z m120 0 c29 -27 29 -39 -2 -68 l-25 -23 -25 23
c-31 29 -31 37 -3 67 26 28 26 28 55 1z m120 0 c29 -27 29 -39 -2 -68 l-25
-23 -25 23 c-31 29 -31 37 -3 67 26 28 26 28 55 1z m120 0 c29 -27 29 -39 -2
-68 l-25 -23 -25 23 c-31 29 -31 37 -3 67 26 28 26 28 55 1z m120 0 c29 -27
29 -39 -2 -68 l-25 -23 -25 23 c-31 29 -31 37 -3 67 26 28 26 28 55 1z m120 0
c29 -27 29 -39 -2 -68 l-25 -23 -25 23 c-31 29 -31 37 -3 67 26 28 26 28 55 1z
m120 0 c29 -27 29 -39 -2 -68 l-25 -23 -25 23 c-31 29 -31 37 -3 67 26 28 26
28 55 1z m120 0 c29 -27 29 -39 -2 -68 l-25 -23 -25 23 c-31 29 -31 37 -3 67
26 28 26 28 55 1z m120 0 c29 -27 29 -39 -2 -68 l-25 -23 -25 23 c-31 29 -31
37 -3 67 26 28 26 28 55 1z m120 0 c29 -27 29 -39 -2 -68 l-25 -23 -25 23
c-31 29 -31 37 -3 67 26 28 26 28 55 1z m120 0 c29 -27 29 -39 -2 -68 l-25
-23 -25 23 c-31 29 -31 37 -3 67 26 28 26 28 55 1z m120 0 c29 -27 29 -39 -2
-68 l-25 -23 -25 23 c-31 29 -31 37 -3 67 26 28 26 28 55 1z m120 0 c29 -27
29 -39 -2 -68 l-25 -23 -25 23 c-31 29 -31 37 -3 67 26 28 26 28 55 1z m120 0
c29 -27 29 -39 -2 -68 l-25 -23 -25 23 c-31 29 -31 37 -3 67 26 28 26 28 55 1z
m120 0 c29 -27 29 -39 -2 -68 l-25 -23 -25 23 c-31 29 -31 37 -3 67 26 28 26
28 55 1z m120 0 c29 -27 29 -39 -2 -68 l-25 -23 -25 23 c-31 29 -31 37 -3 67
26 28 26 28 55 1z m120 0 c29 -27 29 -39 -2 -68 l-25 -23 -25 23 c-31 29 -31
37 -3 67 26 28 26 28 55 1z m120 0 c29 -27 29 -39 -2 -68 l-25 -23 -25 23
c-31 29 -31 37 -3 67 26 28 26 28 55 1z m120 0 c29 -27 29 -39 -2 -68 l-25
-23 -25 23 c-31 29 -31 37 -3 67 26 28 26 28 55 1z m360 0 c29 -27 29 -39 -2
-68 l-25 -23 -25 23 c-31 29 -31 37 -3 67 26 28 26 28 55 1z m120 0 c29 -27
29 -39 -2 -68 l-25 -23 -25 23 c-31 29 -31 37 -3 67 26 28 26 28 55 1z m120 0
c29 -27 29 -39 -2 -68 l-25 -23 -25 23 c-31 29 -31 37 -3 67 26 28 26 28 55 1z
m-2700 -80 c29 -27 29 -39 -2 -68 l-25 -23 -25 23 c-31 29 -31 37 -3 67 26 28
26 28 55 1z m120 0 c29 -27 29 -39 -2 -68 l-25 -23 -25 23 c-31 29 -31 37 -3
67 26 28 26 28 55 1z m120 0 c29 -27 29 -39 -2 -68 l-25 -23 -25 23 c-31 29
-31 37 -3 67 26 28 26 28 55 1z m120 0 c29 -27 29 -39 -2 -68 l-25 -23 -25 23
c-31 29 -31 37 -3 67 26 28 26 28 55 1z m120 0 c29 -27 29 -39 -2 -68 l-25
-23 -25 23 c-31 29 -31 37 -3 67 26 28 26 28 55 1z m120 0 c29 -27 29 -39 -2
-68 l-25 -23 -25 23 c-31 29 -31 37 -3 67 26 28 26 28 55 1z m120 0 c30 -28
29 -42 -4 -67 l-26 -21 -24 22 c-29 27 -29 36 -1 65 26 28 26 28 55 1z m120 0
c29 -27 29 -39 -2 -68 l-25 -23 -25 23 c-31 29 -31 37 -3 67 26 28 26 28 55 1z
m120 0 c29 -27 29 -39 -2 -68 l-25 -23 -25 23 c-31 29 -31 37 -3 67 26 28 26
28 55 1z m120 0 c29 -27 29 -39 -2 -68 l-25 -23 -25 23 c-31 29 -31 37 -3 67
26 28 26 28 55 1z m120 0 c29 -27 29 -39 -2 -68 l-25 -23 -25 23 c-31 29 -31
37 -3 67 26 28 26 28 55 1z m120 0 c29 -27 29 -39 -2 -68 l-25 -23 -25 23
c-31 29 -31 37 -3 67 26 28 26 28 55 1z m120 0 c29 -27 29 -39 -2 -68 l-25
-23 -25 23 c-31 29 -31 37 -3 67 26 28 26 28 55 1z m120 0 c29 -27 29 -39 -2
-68 l-25 -23 -25 23 c-31 29 -31 37 -3 67 26 28 26 28 55 1z m120 0 c29 -27
29 -39 -2 -68 l-25 -23 -25 23 c-31 29 -31 37 -3 67 26 28 26 28 55 1z m120 0
c29 -27 29 -39 -2 -68 l-25 -23 -25 23 c-31 29 -31 37 -3 67 26 28 26 28 55 1z
m120 0 c29 -27 29 -39 -2 -68 l-25 -23 -25 23 c-31 29 -31 37 -3 67 26 28 26
28 55 1z m120 0 c29 -27 29 -39 -2 -68 l-25 -23 -25 23 c-31 29 -31 37 -3 67
26 28 26 28 55 1z m120 0 c29 -27 29 -39 -2 -68 l-25 -23 -25 23 c-31 29 -31
37 -3 67 26 28 26 28 55 1z m120 0 c29 -27 29 -39 -2 -68 l-25 -23 -25 23
c-31 29 -31 37 -3 67 26 28 26 28 55 1z m120 0 c29 -27 29 -39 -2 -68 l-25
-23 -25 23 c-31 29 -31 37 -3 67 26 28 26 28 55 1z m120 0 c29 -27 29 -39 -2
-68 l-25 -23 -25 23 c-31 29 -31 37 -3 67 26 28 26 28 55 1z m120 0 c29 -27
29 -39 -2 -68 l-25 -23 -25 23 c-31 29 -31 37 -3 67 26 28 26 28 55 1z m120 0
c30 -28 29 -42 -4 -67 l-26 -21 -24 22 c-29 27 -29 36 -1 65 26 28 26 28 55 1z
m-2820 -80 c30 -28 29 -44 -2 -64 -23 -15 -27 -15 -50 0 -31 20 -31 33 -3 63
26 28 26 28 55 1z m120 0 c28 -27 29 -36 2 -64 l-21 -23 -29 21 c-35 26 -36
35 -7 65 26 28 26 28 55 1z m360 0 c29 -28 29 -37 -3 -65 l-27 -23 -23 23
c-29 27 -30 35 -2 64 26 28 26 28 55 1z m120 0 c28 -26 29 -40 3 -63 -18 -16
-23 -17 -46 -4 -37 19 -40 36 -14 65 28 29 28 29 57 2z m120 0 c30 -28 29 -40
-6 -66 l-29 -21 -21 23 c-26 28 -26 34 1 63 26 28 26 28 55 1z m120 0 c29 -27
29 -44 -1 -63 -23 -15 -27 -15 -50 0 -32 21 -32 32 -4 62 26 28 26 28 55 1z
m123 -2 c26 -29 22 -51 -15 -68 -21 -9 -28 -8 -45 7 -25 23 -25 33 2 62 27 29
29 29 58 -1z m117 2 c29 -27 29 -44 -1 -63 -23 -15 -27 -15 -50 0 -32 21 -32
32 -4 62 26 28 26 28 55 1z m120 0 c30 -28 29 -40 -6 -66 l-29 -21 -21 23
c-26 28 -26 34 1 63 26 28 26 28 55 1z m120 0 c28 -26 29 -40 3 -63 -18 -16
-23 -17 -46 -4 -37 19 -40 36 -14 65 28 29 28 29 57 2z m120 0 c30 -28 29 -40
-6 -66 l-29 -21 -21 23 c-26 28 -26 34 1 63 26 28 26 28 55 1z m120 0 c28 -26
29 -40 3 -63 -18 -16 -23 -17 -46 -4 -37 19 -40 36 -14 65 28 29 28 29 57 2z
m120 0 c29 -28 29 -39 -3 -67 l-26 -23 -24 23 c-30 28 -30 36 -2 66 26 28 26
28 55 1z m123 -2 c26 -29 22 -51 -15 -68 -21 -9 -28 -8 -45 7 -25 23 -25 33 2
62 27 29 29 29 58 -1z m117 2 c30 -28 29 -42 -3 -63 -23 -15 -27 -15 -50 0
-30 19 -30 32 -2 62 26 28 26 28 55 1z m123 -2 c26 -29 22 -51 -15 -68 -21 -9
-28 -8 -45 7 -25 23 -25 33 2 62 27 29 29 29 58 -1z m117 2 c30 -28 29 -42 -6
-67 l-28 -20 -22 22 c-26 29 -26 35 1 64 26 28 26 28 55 1z m240 0 c29 -27 29
-37 -1 -66 l-24 -23 -26 24 c-32 29 -32 34 -4 64 26 28 26 28 55 1z m120 0
c30 -28 29 -40 -5 -65 l-28 -21 -22 23 c-27 28 -27 33 0 62 26 28 26 28 55 1z
m120 0 c29 -27 29 -44 -1 -63 -23 -15 -27 -15 -50 0 -32 21 -32 32 -4 62 26
28 26 28 55 1z m120 0 c30 -28 29 -40 -6 -66 l-29 -21 -21 23 c-26 28 -26 34
1 63 26 28 26 28 55 1z"/>
</g>
</svg>
