<?xml version="1.0" standalone="no"?>
<!DOCTYPE svg PUBLIC "-//W3C//DTD SVG 20010904//EN"
 "http://www.w3.org/TR/2001/REC-SVG-20010904/DTD/svg10.dtd">
<svg version="1.0" xmlns="http://www.w3.org/2000/svg"
 width="300.000000pt" height="158.000000pt" viewBox="0 0 300.000000 158.000000"
 preserveAspectRatio="xMidYMid meet">

<g transform="translate(0.000000,158.000000) scale(0.100000,-0.100000)"
fill="#d4a373" stroke="none">
<path d="M102 1555 c-27 -22 -30 -23 -45 -7 -11 11 -17 12 -17 4 0 -7 7 -15
15 -18 23 -9 18 -38 -13 -67 -16 -15 -30 -25 -33 -23 -2 2 -4 -6 -4 -19 0 -13
3 -23 6 -22 15 4 69 -45 69 -62 0 -19 -39 -61 -58 -61 -7 0 -12 5 -12 12 0 6
-3 9 -6 6 -3 -3 0 -15 8 -27 10 -16 10 -23 0 -33 -19 -19 -14 -33 6 -15 17 16
20 15 42 -8 13 -14 28 -25 34 -25 6 1 -4 13 -21 29 -39 33 -39 37 -9 75 l24
29 36 -28 c20 -15 36 -33 36 -39 0 -7 -16 -27 -35 -46 -19 -18 -32 -36 -30
-40 2 -4 -9 -20 -25 -35 -29 -28 -30 -28 -50 -10 -26 23 -26 11 0 -23 l20 -25
-22 -26 -22 -26 23 22 24 22 34 -26 c40 -31 41 -48 6 -85 l-27 -28 -28 27
c-15 15 -28 22 -28 16 0 -6 11 -18 25 -27 32 -21 31 -33 -2 -70 l-28 -31 31
28 31 28 32 -26 c37 -32 39 -54 6 -85 l-24 -23 -38 28 -38 28 32 -34 c18 -19
33 -40 33 -45 0 -6 -13 -23 -30 -39 -38 -37 -37 -54 5 -85 18 -14 36 -33 38
-42 5 -18 -46 -74 -60 -65 -4 3 -8 -8 -8 -23 0 -15 4 -26 8 -23 11 7 77 -45
77 -61 0 -7 -13 -25 -28 -40 -26 -24 -30 -25 -42 -11 -20 23 -24 10 -6 -18 15
-22 15 -26 1 -37 -8 -7 -15 -18 -15 -24 0 -6 7 -3 14 6 18 24 28 23 59 -10 33
-35 33 -39 0 -74 l-27 -28 -23 22 c-13 12 -23 16 -23 10 0 -6 9 -16 20 -22 11
-6 20 -18 20 -28 0 -9 -9 -23 -20 -30 -11 -7 -20 -17 -20 -24 0 -6 11 -1 24
11 l25 23 30 -23 c41 -33 44 -55 14 -79 -15 -11 -24 -22 -21 -25 2 -3 15 6 28
20 l23 25 33 -25 c46 -35 48 -31 6 11 l-35 35 30 31 31 31 30 -24 c38 -30 46
-56 22 -69 -10 -5 -21 -17 -24 -27 -5 -12 2 -9 21 9 l28 27 35 -26 35 -26 -35
36 -34 37 31 32 31 31 31 -24 c37 -30 38 -45 4 -81 -15 -15 -22 -28 -17 -28 6
0 21 11 34 25 l23 25 36 -27 36 -26 -35 37 -34 36 31 32 31 31 31 -24 c37 -30
38 -45 4 -81 -15 -15 -22 -28 -17 -28 6 0 21 11 34 25 l23 24 36 -26 36 -26
-32 32 c-18 17 -33 34 -33 39 0 5 14 21 30 37 l30 29 30 -29 c37 -35 37 -42 3
-77 -15 -15 -22 -28 -17 -28 6 0 21 11 34 25 23 25 24 25 44 7 36 -33 52 -35
19 -3 -18 17 -33 34 -33 39 0 5 14 21 30 37 l30 29 30 -29 c37 -35 37 -42 3
-77 -15 -15 -22 -28 -17 -28 6 0 21 11 34 25 23 25 24 25 44 7 36 -33 52 -35
19 -3 -18 17 -33 37 -33 44 0 14 44 57 58 57 11 0 62 -54 62 -65 0 -5 -12 -22
-27 -37 -15 -15 -22 -28 -17 -28 6 0 21 11 34 25 23 25 24 25 44 7 36 -33 52
-35 19 -3 -39 36 -40 49 -9 79 31 28 37 28 69 -6 33 -35 33 -39 -1 -75 -23
-26 -24 -28 -5 -18 12 6 27 19 32 29 9 16 11 15 33 -4 38 -34 56 -38 21 -5
-39 36 -41 50 -10 79 30 28 38 28 70 -6 33 -35 33 -39 0 -76 l-28 -31 32 29
33 30 22 -21 c13 -11 30 -23 38 -27 8 -4 0 6 -17 22 -40 34 -41 51 -7 81 l26
22 34 -26 c19 -14 34 -31 34 -37 0 -7 -12 -26 -27 -42 l-28 -31 33 29 32 30
30 -29 c16 -16 32 -26 35 -23 4 3 -8 16 -24 28 -38 26 -39 49 -6 80 l25 24 27
-20 c48 -36 51 -50 18 -86 l-30 -33 33 29 32 30 30 -29 c16 -16 32 -26 35 -23
4 3 -8 16 -24 28 -37 26 -39 49 -6 80 l24 23 36 -27 c19 -15 35 -32 35 -38 0
-7 -12 -26 -27 -42 l-28 -31 33 29 32 30 30 -29 c16 -16 32 -26 35 -23 4 3 -8
16 -24 28 -37 26 -39 49 -7 79 l25 23 35 -27 c20 -15 36 -32 36 -38 0 -6 -12
-25 -27 -41 l-28 -31 33 29 32 30 28 -27 c15 -15 32 -27 37 -27 5 0 -9 16 -30
36 l-39 35 31 31 31 31 36 -28 c20 -15 36 -32 36 -38 0 -6 -12 -25 -28 -41
l-27 -31 33 29 32 30 28 -27 c15 -15 32 -27 36 -27 4 0 -9 16 -30 35 l-38 36
31 31 31 31 36 -28 c20 -15 36 -32 36 -38 0 -6 -12 -25 -27 -41 l-28 -31 33
29 32 30 28 -27 c42 -40 46 -33 4 9 l-35 35 30 31 31 30 30 -22 c33 -25 47
-56 29 -68 -7 -4 -19 -16 -27 -27 -8 -11 0 -7 16 8 l31 28 31 -25 c37 -32 52
-32 82 -1 l23 25 36 -27 36 -27 -33 38 -34 39 30 30 30 30 30 -24 c41 -33 43
-49 7 -81 -16 -15 -25 -28 -19 -28 6 0 21 11 34 25 l23 24 36 -26 36 -27 -35
37 -34 37 31 32 31 31 31 -24 c37 -30 38 -45 4 -81 -15 -15 -22 -28 -17 -28 6
0 21 11 34 25 l23 24 36 -26 36 -27 -35 37 -34 37 31 32 31 31 31 -24 c37 -30
38 -45 4 -81 -15 -15 -22 -28 -17 -28 6 0 21 11 34 25 l23 24 36 -26 36 -26
-32 32 c-40 38 -40 49 -2 80 l30 24 30 -29 c36 -34 36 -41 2 -76 -15 -15 -22
-28 -17 -28 6 0 21 11 34 25 23 25 24 25 44 7 36 -33 52 -35 19 -3 -18 17 -33
35 -33 40 0 19 52 62 68 56 11 -4 12 -2 5 7 -11 15 -11 28 1 48 7 12 6 13 -4
3 -10 -9 -20 -6 -46 14 -41 30 -43 51 -9 83 20 18 28 21 37 12 19 -19 33 -14
15 6 -21 23 -21 36 -2 52 8 7 15 17 15 23 0 5 -9 -1 -21 -14 l-21 -24 -35 39
-35 38 31 31 30 31 26 -24 c14 -13 25 -18 25 -12 0 6 -9 16 -20 22 -26 14 -26
42 0 65 11 10 20 23 20 28 0 6 -12 -1 -27 -15 l-28 -26 -32 27 c-40 33 -41 49
-3 79 l28 22 31 -26 c17 -14 31 -23 31 -19 0 3 -13 17 -29 31 -35 29 -34 44 2
82 15 15 27 33 27 39 0 6 -16 25 -35 42 -19 17 -35 36 -35 44 0 14 54 70 61
63 2 -2 4 9 5 25 1 15 -3 26 -7 23 -13 -8 -69 38 -69 56 0 9 13 28 28 43 23
22 31 25 41 14 10 -9 10 -7 0 10 -11 19 -11 27 -1 43 11 19 11 20 -7 8 -18
-11 -24 -9 -50 16 -34 32 -34 46 -1 81 23 24 25 24 49 9 l25 -17 -22 28 -22
28 22 26 23 26 -25 -22 -25 -22 -32 30 c-40 35 -41 45 -6 81 l27 28 28 -27
c15 -15 28 -22 28 -16 0 7 -11 20 -25 31 -31 25 -31 33 0 62 14 13 25 28 25
34 0 5 -13 -3 -29 -18 l-29 -28 -31 23 c-38 28 -39 48 -6 79 14 13 23 26 20
29 -8 8 -74 -60 -70 -73 2 -6 -9 -21 -25 -34 l-29 -23 -31 22 c-37 28 -38 45
-3 81 15 15 22 28 17 28 -15 0 -75 -65 -68 -73 4 -3 -7 -19 -23 -35 l-29 -30
-32 29 c-39 35 -40 45 -5 81 15 15 22 28 17 28 -6 0 -21 -11 -34 -25 -23 -25
-24 -25 -44 -7 -36 33 -52 35 -19 3 40 -37 41 -47 7 -82 l-27 -28 -33 27 c-41
33 -42 47 -7 84 15 15 22 28 17 28 -6 0 -21 -11 -34 -25 -23 -25 -24 -25 -44
-7 -36 33 -52 35 -18 3 39 -38 40 -51 4 -83 l-28 -25 -32 27 c-39 32 -40 46
-5 83 24 26 25 28 6 18 -12 -6 -27 -19 -32 -29 -9 -16 -11 -15 -33 4 -13 12
-30 24 -38 28 -8 4 0 -6 18 -22 39 -35 40 -51 5 -84 l-28 -27 -32 30 c-40 35
-41 44 -5 83 l27 31 -32 -29 -33 -30 -30 29 c-16 16 -32 26 -36 23 -3 -4 8
-16 25 -29 38 -28 39 -48 4 -81 l-28 -27 -32 30 c-40 35 -41 44 -5 83 l27 31
-32 -29 -33 -30 -30 29 c-16 16 -32 26 -36 23 -3 -4 8 -16 25 -29 38 -28 39
-45 4 -81 l-27 -28 -33 32 c-18 18 -33 36 -33 42 0 5 12 24 28 40 l27 31 -32
-29 -33 -30 -30 29 c-16 16 -32 26 -35 23 -4 -3 8 -16 24 -28 38 -27 39 -49 3
-83 l-28 -27 -32 33 c-18 18 -32 37 -32 42 0 5 12 23 28 39 l27 31 -32 -29
-33 -30 -28 27 c-15 15 -32 27 -38 27 -5 0 6 -12 24 -26 39 -31 40 -52 4 -87
l-28 -27 -32 33 c-18 18 -32 37 -32 42 0 5 12 23 27 39 l28 31 -32 -29 -33
-30 -28 27 c-15 15 -32 27 -38 27 -5 0 6 -12 24 -26 39 -31 40 -52 4 -87 l-28
-27 -32 33 c-18 18 -32 37 -32 42 0 5 12 23 28 39 l27 31 -30 -27 -30 -27 -30
24 c-17 13 -34 24 -40 25 -5 0 5 -12 23 -26 17 -14 32 -33 32 -43 0 -18 -39
-61 -56 -61 -11 0 -66 54 -66 65 0 4 13 21 29 38 l28 32 -30 -27 -30 -27 -30
24 c-17 13 -34 24 -38 25 -5 0 5 -12 22 -26 17 -14 31 -34 31 -43 0 -17 -39
-61 -53 -61 -13 0 -67 53 -62 61 3 4 -14 22 -37 40 l-43 33 28 -30 c33 -37 34
-54 2 -84 -23 -22 -25 -22 -50 -6 -32 21 -48 57 -32 71 7 6 18 19 26 30 9 12
3 9 -14 -7 l-28 -27 -36 27 -36 26 28 -30 c33 -37 34 -54 3 -83 -23 -22 -25
-22 -50 -6 -14 10 -32 29 -39 43 -6 14 -28 37 -47 51 l-35 26 33 -39 34 -39
-30 -30 -30 -30 -31 22 c-38 27 -39 47 -4 83 15 15 22 28 17 28 -6 0 -21 -11
-34 -25 l-23 -24 -36 27 -36 27 33 -39 34 -39 -30 -30 -30 -30 -31 22 c-38 27
-39 47 -4 83 15 15 22 28 17 28 -6 0 -21 -11 -34 -25 -23 -25 -24 -25 -44 -7
-36 33 -52 35 -18 3 39 -37 39 -49 2 -79 l-29 -23 -31 22 c-37 28 -38 45 -3
81 15 15 22 28 17 28 -6 0 -21 -11 -34 -25 -23 -25 -24 -25 -44 -7 -36 33 -52
35 -18 3 17 -17 32 -35 32 -40 0 -5 -12 -22 -28 -39 l-28 -29 -32 27 c-39 32
-40 46 -5 82 15 15 22 28 17 28 -6 0 -21 -11 -34 -25 -23 -25 -24 -25 -44 -7
-12 11 -28 22 -36 26 -8 4 0 -6 18 -22 39 -35 40 -48 6 -83 l-27 -28 -33 27
c-41 33 -42 47 -7 84 15 15 22 28 17 28 -6 0 -21 -11 -34 -25 -23 -25 -24 -25
-44 -7 -12 11 -28 22 -36 26 -8 4 0 -6 18 -22 39 -35 40 -51 5 -84 l-28 -27
-32 30 c-40 35 -41 45 -6 81 33 35 25 37 -15 3z m14 -92 c18 -16 34 -33 34
-39 0 -5 -13 -23 -30 -39 l-29 -28 -37 37 -37 37 28 29 c16 17 30 30 32 30 2
0 20 -12 39 -27z m140 0 c18 -16 34 -33 34 -39 0 -5 -13 -23 -30 -39 l-30 -28
-36 37 -36 37 28 30 c15 16 29 29 31 29 2 0 20 -12 39 -27z m144 -9 l32 -37
-32 -31 -31 -31 -35 38 -36 39 28 29 c15 16 31 29 35 29 4 0 21 -16 39 -36z
m140 0 l32 -37 -32 -31 -31 -31 -35 38 -36 39 28 29 c15 16 31 29 35 29 4 0
21 -16 39 -36z m139 0 l32 -36 -31 -29 -31 -30 -34 28 c-18 15 -34 32 -34 37
-1 11 49 66 60 66 4 0 21 -16 38 -36z m133 9 c34 -33 34 -40 2 -76 l-24 -29
-34 29 c-19 15 -35 32 -35 37 -1 10 49 66 58 66 3 0 18 -12 33 -27z m140 0
c35 -33 35 -45 2 -78 l-26 -26 -33 28 c-18 15 -34 32 -34 37 -1 10 49 66 58
66 3 0 18 -12 33 -27z m146 -6 c29 -26 28 -38 -5 -69 l-28 -27 -32 30 c-18 16
-33 32 -33 36 0 15 54 62 64 56 6 -3 21 -15 34 -26z m132 6 c37 -33 37 -42 3
-75 l-28 -27 -32 30 c-18 16 -33 32 -33 36 0 7 51 63 57 63 2 0 17 -12 33 -27z
m139 1 c38 -31 38 -40 5 -75 l-27 -28 -33 27 c-19 15 -34 31 -34 35 0 11 43
66 52 66 3 1 20 -11 37 -25z m138 0 c40 -30 41 -40 7 -75 l-27 -28 -33 27
c-19 15 -34 31 -34 35 0 9 42 65 49 66 2 1 19 -10 38 -25z m139 0 c41 -32 42
-40 8 -75 l-27 -28 -33 26 c-19 14 -34 32 -34 41 0 14 37 62 47 62 3 0 20 -12
39 -26z m140 0 c41 -32 42 -40 7 -76 -15 -15 -22 -28 -16 -28 7 0 21 12 33 27
l20 26 30 -28 c36 -35 38 -54 6 -84 l-25 -23 -30 22 c-17 12 -31 28 -31 35 0
8 -18 29 -40 46 -22 18 -40 39 -40 47 0 12 38 61 48 62 2 0 19 -12 38 -26z
m140 0 c41 -32 42 -40 8 -75 l-27 -28 -33 26 c-19 14 -34 32 -34 41 0 14 37
62 47 62 3 0 20 -12 39 -26z m140 0 c41 -32 42 -42 5 -78 l-28 -27 -32 26
c-17 15 -31 34 -31 43 0 14 37 62 47 62 3 0 20 -12 39 -26z m140 -1 c18 -16
34 -33 34 -39 0 -5 -14 -23 -31 -40 l-30 -29 -36 38 -35 39 28 29 c15 16 29
29 31 29 2 0 20 -12 39 -27z m137 1 c40 -34 41 -46 6 -80 l-28 -27 -37 37 -37
37 28 29 c16 17 31 30 33 30 2 0 18 -12 35 -26z m140 0 c40 -34 41 -45 5 -80
l-30 -28 -35 38 -35 38 28 29 c15 16 30 29 32 29 2 0 18 -12 35 -26z m147 -10
l32 -37 -32 -31 -31 -31 -35 38 -36 39 28 29 c15 16 31 29 35 29 4 0 21 -16
39 -36z m131 13 c39 -35 40 -49 7 -82 l-30 -30 -35 38 -35 39 28 29 c15 16 30
29 33 29 3 0 18 -11 32 -23z m148 -13 l31 -35 -30 -30 -30 -31 -34 29 c-19 15
-35 32 -35 37 -1 11 49 66 60 66 4 0 21 -16 38 -36z m-2691 -109 c2 -9 -8 -30
-23 -45 l-27 -28 -34 30 c-19 17 -34 36 -34 42 0 5 12 22 27 38 l27 28 30 -24
c17 -13 33 -31 34 -41z m140 0 c2 -9 -9 -30 -24 -46 l-28 -29 -33 32 c-18 18
-33 36 -33 42 0 5 12 22 27 38 l27 28 30 -24 c17 -13 33 -31 34 -41z m142 -4
c0 -10 -13 -29 -28 -44 l-28 -27 -32 33 c-18 18 -32 37 -32 42 0 5 12 21 26
36 l27 28 33 -26 c19 -14 34 -33 34 -42z m140 0 c0 -10 -13 -29 -28 -44 l-28
-27 -32 33 c-18 18 -32 37 -32 42 0 5 12 21 26 36 l27 28 33 -26 c19 -14 34
-33 34 -42z m140 -2 c0 -8 -13 -27 -28 -42 l-28 -27 -32 33 c-18 18 -32 37
-32 42 0 5 12 21 26 36 l27 28 33 -27 c19 -15 34 -34 34 -43z m140 1 c0 -8
-13 -27 -28 -42 l-27 -26 -33 29 c-39 35 -40 45 -6 80 l27 28 33 -27 c19 -15
34 -34 34 -42z m139 -1 c1 -8 -11 -27 -26 -41 l-28 -27 -32 30 c-40 35 -41 45
-6 81 l26 27 33 -27 c18 -15 33 -34 33 -43z m141 2 c0 -12 -44 -61 -56 -61
-14 0 -64 46 -64 59 0 8 12 27 26 42 l27 28 33 -27 c19 -15 34 -33 34 -41z
m139 -1 c0 -8 -13 -25 -29 -38 l-29 -23 -31 22 c-37 28 -38 45 -3 81 l26 27
33 -27 c18 -15 33 -34 33 -42z m140 4 c1 -5 -12 -23 -28 -38 l-29 -28 -31 23
c-38 28 -39 45 -4 81 l26 27 33 -27 c18 -15 33 -32 33 -38z m113 -36 l-30 -31
-31 22 c-38 27 -39 47 -4 84 l28 28 34 -36 33 -37 -30 -30z m138 66 l32 -37
-30 -30 -30 -29 -31 23 c-17 12 -31 29 -31 37 0 14 40 70 51 71 4 1 21 -15 39
-35z m272 9 c34 -33 35 -53 4 -82 -19 -18 -28 -20 -43 -13 -23 13 -50 44 -48
57 0 11 45 65 54 65 3 0 18 -12 33 -27z m138 0 c36 -32 38 -52 5 -83 l-24 -23
-35 26 c-19 15 -33 33 -32 42 2 13 44 65 53 65 2 0 17 -12 33 -27z m168 -38
c4 -16 -33 -65 -49 -65 -14 0 -69 51 -66 63 1 6 13 23 26 39 l24 28 31 -24
c17 -13 33 -31 34 -41z m140 0 c2 -9 -8 -30 -23 -45 l-28 -29 -33 32 c-19 17
-34 36 -34 41 0 6 12 22 27 38 l27 28 30 -24 c17 -13 33 -31 34 -41z m140 0
c2 -9 -9 -30 -24 -46 l-28 -29 -33 32 c-18 18 -33 36 -33 42 0 5 12 22 27 38
l27 28 30 -24 c17 -13 33 -31 34 -41z m142 -4 c0 -10 -13 -29 -28 -44 l-28
-27 -32 33 c-18 18 -32 37 -32 42 0 5 12 21 26 36 l27 28 33 -26 c19 -14 34
-33 34 -42z m140 0 c0 -10 -12 -29 -27 -43 l-28 -27 -32 30 c-40 35 -41 45 -7
80 l27 28 33 -26 c19 -14 34 -33 34 -42z m-2603 -47 c40 -30 41 -40 7 -75
l-27 -28 -33 27 c-19 15 -34 33 -34 40 0 11 39 60 49 61 2 1 19 -10 38 -25z
m139 0 c41 -32 42 -40 8 -75 l-27 -28 -33 26 c-19 14 -34 32 -34 41 0 14 37
62 47 62 3 0 20 -12 39 -26z m140 0 c41 -32 42 -42 6 -77 l-27 -26 -33 25
c-17 14 -32 33 -32 42 0 14 37 62 47 62 3 0 20 -12 39 -26z m140 -1 c18 -16
34 -33 34 -39 0 -5 -13 -23 -29 -38 l-28 -27 -38 36 -38 35 28 30 c16 17 30
30 32 30 2 0 20 -12 39 -27z m140 0 c18 -16 34 -33 34 -39 0 -5 -14 -23 -31
-40 l-30 -29 -36 38 -35 39 28 29 c15 16 29 29 31 29 2 0 20 -12 39 -27z m140
0 c18 -16 34 -33 34 -39 0 -5 -14 -23 -31 -40 l-30 -29 -36 38 -35 39 28 29
c15 16 29 29 31 29 2 0 20 -12 39 -27z m135 4 c39 -35 41 -51 8 -83 l-30 -29
-36 38 -35 39 28 29 c15 16 30 29 33 29 3 0 18 -11 32 -23z m140 0 c39 -35 41
-51 8 -83 l-30 -29 -36 38 -35 39 28 29 c15 16 30 29 33 29 3 0 18 -11 32 -23z
m148 -13 l32 -35 -32 -30 -32 -30 -36 35 -35 36 29 30 c16 16 32 30 36 30 4 0
21 -16 38 -36z m140 1 l31 -35 -32 -30 -31 -30 -33 28 c-18 15 -33 31 -33 36
-1 11 49 66 60 66 4 0 21 -16 38 -35z m133 8 c35 -33 35 -43 1 -75 l-28 -27
-32 30 c-18 16 -33 32 -33 36 0 8 51 63 59 63 3 0 18 -12 33 -27z m140 0 c35
-33 35 -43 1 -75 l-28 -27 -32 30 c-18 16 -33 32 -33 36 0 8 51 63 59 63 3 0
18 -12 33 -27z m140 0 c35 -33 35 -43 1 -75 l-28 -27 -32 30 c-18 16 -33 32
-33 36 0 8 51 63 59 63 3 0 18 -12 33 -27z m140 0 c35 -33 35 -43 1 -75 l-28
-27 -32 30 c-18 16 -33 32 -33 36 0 8 51 63 59 63 3 0 18 -12 33 -27z m135 1
c18 -14 33 -31 33 -38 0 -6 -15 -27 -34 -45 -19 -18 -33 -38 -31 -45 2 -6 -9
-21 -25 -34 l-29 -23 -31 22 c-37 28 -38 48 -2 82 l28 27 24 -25 c13 -14 28
-25 34 -25 6 1 -4 13 -21 29 -39 33 -41 46 -10 76 28 29 25 29 64 -1z m170
-31 c3 -8 -10 -30 -31 -52 -20 -20 -34 -40 -31 -42 2 -3 -8 -18 -24 -33 l-29
-28 -31 23 c-38 28 -39 45 -4 81 l27 28 28 -27 c15 -14 30 -24 33 -21 4 3 -8
16 -24 28 -38 26 -39 52 -5 79 l26 21 30 -21 c16 -12 32 -28 35 -36z m109 31
c41 -32 42 -40 8 -75 l-27 -28 -33 26 c-19 14 -34 33 -34 41 0 13 36 59 48 61
2 1 19 -11 38 -25z m140 0 c41 -32 42 -40 8 -75 l-27 -28 -33 26 c-19 14 -34
33 -34 41 0 13 36 59 48 61 2 1 19 -11 38 -25z m140 0 c41 -31 42 -43 9 -74
-14 -13 -22 -26 -20 -29 3 -3 16 7 28 23 l23 28 32 -27 c18 -15 32 -35 32 -44
0 -24 -45 -65 -62 -56 -26 15 -57 48 -53 56 3 4 -13 22 -35 40 -22 18 -40 40
-40 48 0 13 37 61 47 61 3 0 20 -12 39 -26z m140 0 c41 -32 42 -42 5 -78 l-28
-27 -38 36 -38 35 28 30 c16 17 30 30 33 30 2 0 19 -12 38 -26z m-2712 -82
c40 -37 41 -44 6 -77 l-29 -27 -30 21 c-17 13 -31 29 -31 38 0 13 39 71 49 72
2 1 17 -12 35 -27z m146 -8 l32 -37 -30 -29 c-29 -30 -30 -30 -57 -12 -41 27
-46 52 -16 84 14 15 29 28 32 29 4 0 21 -15 39 -35z m138 3 c29 -26 28 -48 -3
-77 -23 -22 -25 -22 -50 -6 -42 28 -47 56 -16 88 27 28 32 27 69 -5z m140 0
c28 -26 28 -48 -2 -76 l-25 -23 -34 26 c-40 30 -41 45 -7 80 24 27 31 26 68
-7z m132 6 c36 -32 38 -52 6 -82 -19 -18 -28 -20 -43 -13 -20 11 -51 43 -53
55 -2 8 49 67 57 67 2 0 17 -12 33 -27z m168 -40 c2 -10 -9 -30 -23 -43 l-25
-24 -27 20 c-48 36 -51 50 -18 84 l29 30 30 -24 c17 -13 32 -32 34 -43z m142
-1 c0 -19 -38 -62 -55 -62 -13 0 -65 52 -65 65 0 5 12 21 26 36 l27 28 33 -26
c19 -14 34 -32 34 -41z m140 -1 c0 -10 -13 -29 -28 -44 l-28 -27 -32 33 c-18
18 -32 37 -32 42 0 5 12 21 26 36 l27 28 33 -26 c19 -14 34 -33 34 -42z m140
0 c0 -10 -13 -29 -28 -44 l-28 -27 -32 33 c-18 18 -32 37 -32 42 0 5 12 21 26
36 l27 28 33 -26 c19 -14 34 -33 34 -42z m140 0 c0 -10 -12 -29 -27 -43 l-28
-27 -32 30 c-40 35 -41 45 -7 80 l27 28 33 -26 c19 -14 34 -33 34 -42z m140
-1 c0 -8 -13 -27 -28 -42 l-27 -26 -33 29 c-39 35 -40 45 -6 80 l27 28 33 -27
c19 -15 34 -34 34 -42z m139 0 c0 -8 -12 -27 -27 -42 l-27 -26 -33 29 c-39 35
-40 45 -5 81 l26 27 33 -27 c18 -15 33 -34 33 -42z m140 2 c1 -8 -12 -26 -27
-41 l-28 -28 -32 27 c-39 32 -40 46 -5 82 l26 27 33 -27 c18 -15 33 -33 33
-40z m140 -2 c0 -8 -13 -25 -29 -38 l-29 -23 -31 22 c-37 28 -38 45 -3 81 l26
27 33 -27 c18 -15 33 -34 33 -42z m391 34 l32 -37 -30 -30 -30 -29 -31 23
c-17 12 -31 29 -31 37 0 14 40 70 51 71 4 1 21 -15 39 -35z m132 9 c34 -33 35
-53 4 -82 l-25 -23 -28 22 c-41 32 -44 51 -14 81 14 15 28 27 30 28 3 0 18
-11 33 -26z m140 0 c34 -33 35 -53 3 -83 l-24 -23 -35 26 c-19 15 -33 33 -32
42 2 14 45 65 55 65 3 0 18 -12 33 -27z m-2570 -90 c35 -33 35 -45 2 -78 l-26
-26 -34 30 c-19 17 -35 33 -35 37 -1 7 52 64 60 64 3 0 18 -12 33 -27z m140 0
c34 -33 34 -40 2 -76 l-24 -29 -34 29 c-19 15 -35 32 -35 37 -1 10 49 66 58
66 3 0 18 -12 33 -27z m140 0 c35 -33 35 -43 1 -75 l-28 -27 -32 30 c-18 16
-33 32 -33 36 0 8 51 63 59 63 3 0 18 -12 33 -27z m140 0 c35 -33 35 -43 1
-75 l-28 -27 -32 30 c-18 16 -33 32 -33 36 0 8 51 63 59 63 3 0 18 -12 33 -27z
m138 0 c37 -32 37 -40 4 -74 l-27 -28 -33 27 c-40 32 -42 43 -11 76 29 31 32
31 67 -1z m137 1 c40 -30 41 -40 7 -75 l-27 -28 -33 27 c-19 15 -34 32 -34 39
0 11 38 59 49 62 2 1 19 -10 38 -25z m140 0 c40 -30 41 -40 7 -75 l-27 -28
-33 26 c-19 14 -34 32 -34 40 0 13 38 62 49 63 2 0 19 -11 38 -26z m140 0 c40
-30 41 -43 8 -74 -14 -13 -22 -26 -20 -29 3 -3 17 8 30 24 l23 30 31 -29 c37
-36 39 -55 7 -85 l-25 -23 -30 22 c-17 12 -31 27 -31 35 0 7 -18 29 -40 48
-22 19 -40 40 -40 47 0 13 38 60 48 60 3 0 20 -11 39 -26z m139 0 c41 -32 42
-42 6 -77 l-27 -26 -33 25 c-17 14 -32 33 -32 42 0 14 37 62 47 62 3 0 20 -12
39 -26z m140 -1 c18 -16 34 -32 34 -37 0 -6 -12 -22 -26 -37 l-27 -28 -33 26
c-19 14 -34 32 -34 41 0 14 37 62 47 62 2 0 20 -12 39 -27z m140 0 c18 -16 34
-33 34 -39 0 -5 -13 -23 -30 -39 l-29 -28 -37 37 -37 37 28 29 c16 17 30 30
32 30 2 0 20 -12 39 -27z m140 1 c41 -32 42 -42 5 -78 l-28 -27 -38 36 -38 35
28 30 c16 17 30 30 33 30 2 0 19 -12 38 -26z m142 -4 c17 -16 32 -33 32 -38 0
-5 -13 -21 -30 -37 l-30 -28 -36 37 -36 37 28 30 c15 16 30 29 33 29 3 0 21
-14 39 -30z m141 -6 l32 -36 -32 -31 -32 -30 -35 37 -34 38 28 29 c15 16 31
29 35 29 4 0 21 -16 38 -36z m132 13 c40 -36 41 -52 7 -83 l-31 -27 -35 37
-34 38 28 29 c15 16 30 29 33 29 3 0 18 -11 32 -23z m148 -13 l31 -35 -31 -31
-31 -31 -36 36 -36 37 29 30 c16 16 32 30 36 30 4 0 21 -16 38 -36z m133 9
c34 -33 34 -40 2 -76 l-24 -29 -34 29 c-19 15 -35 32 -35 37 -1 10 49 66 58
66 3 0 18 -12 33 -27z m140 0 c35 -33 35 -43 1 -75 l-28 -27 -32 30 c-18 16
-33 32 -33 36 0 8 51 63 59 63 3 0 18 -12 33 -27z m146 -6 c29 -26 28 -38 -5
-69 l-28 -27 -32 30 c-18 16 -33 32 -33 36 0 15 54 62 64 56 6 -3 21 -15 34
-26z m132 6 c37 -33 37 -42 3 -75 l-28 -27 -32 30 c-18 16 -33 32 -33 36 0 7
51 63 57 63 2 0 17 -12 33 -27z m167 -30 c3 -8 -7 -27 -22 -43 l-28 -29 -33
27 c-41 33 -42 46 -7 76 l28 24 28 -20 c16 -11 31 -27 34 -35z m-2707 -94 c0
-15 -43 -59 -58 -59 -11 0 -62 54 -62 65 0 5 12 21 26 36 l27 28 33 -27 c19
-15 34 -34 34 -43z m139 0 c1 -9 -12 -27 -27 -41 l-28 -25 -32 28 c-39 35 -40
45 -5 81 l26 27 33 -27 c18 -15 33 -34 33 -43z m141 1 c0 -8 -13 -27 -28 -41
l-28 -27 -32 29 c-39 35 -40 45 -6 80 l27 28 33 -27 c19 -15 34 -34 34 -42z
m140 3 c0 -12 -46 -63 -56 -63 -14 0 -64 46 -64 59 0 8 12 27 26 42 l27 28 33
-27 c19 -15 34 -32 34 -39z m139 1 c1 -5 -12 -23 -28 -38 l-29 -28 -31 23
c-38 28 -39 45 -4 81 l26 27 33 -27 c18 -15 33 -32 33 -38z m113 -36 l-30 -30
-31 23 c-38 28 -39 45 -4 82 l28 28 34 -36 33 -37 -30 -30z m138 66 l32 -37
-30 -30 -30 -29 -31 23 c-17 12 -31 29 -31 37 0 14 40 70 51 71 4 1 21 -15 39
-35z m270 9 c36 -32 38 -52 5 -83 l-24 -23 -35 27 c-38 29 -39 44 -2 82 12 12
22 22 24 23 1 1 16 -11 32 -26z m148 -6 c28 -26 28 -44 0 -74 -27 -29 -28 -29
-64 2 -36 31 -37 43 -6 77 26 29 33 28 70 -5z m140 0 c28 -26 28 -44 0 -74
-28 -30 -38 -29 -71 5 -33 35 -33 39 0 74 27 29 34 28 71 -5z m162 -36 c0 -10
-11 -28 -25 -41 l-25 -24 -27 20 c-47 36 -51 50 -19 83 l29 30 33 -26 c19 -14
34 -33 34 -42z m140 0 c0 -10 -13 -29 -28 -44 l-28 -27 -32 33 c-17 17 -32 36
-33 40 0 5 11 22 26 37 l28 29 33 -26 c19 -14 34 -33 34 -42z m138 4 c2 -9 -9
-30 -24 -46 l-28 -29 -33 32 c-18 18 -33 36 -33 42 0 5 12 22 27 38 l27 28 30
-24 c17 -13 33 -31 34 -41z m142 -4 c0 -10 -12 -29 -27 -43 l-28 -27 -32 30
c-40 35 -41 45 -7 80 l27 28 33 -26 c19 -14 34 -33 34 -42z m140 0 c0 -10 -12
-29 -27 -43 l-28 -27 -32 30 c-40 35 -41 45 -7 80 l27 28 33 -26 c19 -14 34
-33 34 -42z m140 0 c0 -9 -13 -28 -28 -43 l-27 -26 -33 29 c-39 35 -40 45 -6
80 l27 28 33 -26 c19 -14 34 -33 34 -42z m139 -2 c1 -8 -11 -27 -26 -41 l-28
-27 -32 30 c-40 35 -41 45 -6 81 l26 27 33 -27 c18 -15 33 -34 33 -43z m140 1
c0 -8 -13 -25 -29 -38 l-29 -23 -31 22 c-37 28 -38 45 -4 80 l27 28 33 -27
c19 -15 34 -34 33 -42z m141 4 c0 -5 -13 -23 -29 -38 l-29 -28 -31 23 c-38 28
-39 45 -5 80 l27 28 33 -27 c19 -15 34 -32 34 -38z m-2744 -50 c41 -32 42 -42
5 -78 l-28 -27 -38 36 -38 35 28 30 c16 17 30 30 33 30 2 0 19 -12 38 -26z
m140 -1 c18 -16 34 -33 34 -39 0 -5 -14 -23 -31 -40 l-30 -29 -36 38 -35 39
28 29 c15 16 29 29 31 29 2 0 20 -12 39 -27z m135 4 c40 -35 41 -52 8 -81
l-30 -27 -36 36 -36 36 28 29 c16 17 31 30 34 30 3 0 18 -11 32 -23z m181 -47
c37 -39 68 -76 68 -82 0 -15 -40 -58 -55 -58 -14 0 -65 52 -65 66 0 6 11 21
25 34 14 13 23 25 20 28 -2 2 -15 -9 -29 -24 l-24 -29 -37 38 -37 38 28 30
c15 16 30 29 33 29 2 0 35 -32 73 -70z m100 46 c37 -33 38 -49 4 -81 l-30 -28
-34 38 -34 37 28 29 c15 16 30 29 33 29 3 0 18 -11 33 -24z m146 -11 l31 -35
-31 -31 -31 -31 -36 36 -35 36 29 30 c16 16 32 30 36 30 4 0 21 -16 37 -35z
m134 8 c35 -33 35 -43 1 -75 l-28 -27 -32 30 c-18 16 -33 32 -33 36 0 8 51 63
59 63 3 0 18 -12 33 -27z m140 0 c35 -33 35 -43 1 -75 l-28 -27 -32 30 c-18
16 -33 32 -33 36 0 8 51 63 59 63 3 0 18 -12 33 -27z m140 0 c35 -33 35 -43 1
-75 l-28 -27 -32 30 c-18 16 -33 33 -33 39 0 10 49 59 59 60 3 0 18 -12 33
-27z m140 0 c35 -33 35 -43 1 -75 l-28 -27 -32 30 c-18 16 -33 33 -33 39 0 10
49 59 59 60 3 0 18 -12 33 -27z m138 0 c37 -33 37 -42 3 -75 l-28 -27 -32 30
c-39 34 -40 41 -10 73 29 31 32 31 67 -1z m137 1 c18 -14 33 -31 33 -38 0 -6
-16 -27 -35 -46 -19 -18 -32 -36 -30 -40 2 -4 -9 -19 -24 -34 l-29 -28 -31 23
c-38 28 -39 48 -3 82 l28 27 24 -25 c13 -14 28 -25 34 -25 6 1 -4 13 -21 29
-18 15 -33 33 -33 40 0 12 39 60 49 61 2 0 19 -11 38 -26z m140 0 c40 -30 41
-40 7 -75 l-27 -28 -33 26 c-19 14 -34 32 -34 41 0 14 37 62 48 62 3 0 20 -11
39 -26z m139 0 c41 -32 42 -40 8 -75 l-27 -28 -33 26 c-19 14 -34 32 -34 41 0
14 37 62 47 62 3 0 20 -12 39 -26z m140 0 c41 -32 42 -40 8 -75 l-27 -28 -33
26 c-19 14 -34 32 -34 41 0 14 37 62 47 62 3 0 20 -12 39 -26z m140 -1 c18
-16 34 -33 34 -39 0 -5 -12 -22 -28 -37 l-27 -26 -33 25 c-17 14 -32 33 -32
42 0 14 37 62 47 62 2 0 20 -12 39 -27z m140 1 c41 -32 42 -42 5 -78 l-28 -27
-38 36 -38 35 28 30 c16 17 30 30 33 30 2 0 19 -12 38 -26z m140 -1 c18 -16
34 -33 34 -39 0 -5 -13 -23 -30 -39 l-30 -28 -36 37 -36 37 28 30 c15 16 29
29 31 29 2 0 20 -12 39 -27z m135 4 c39 -35 41 -51 8 -83 l-29 -27 -36 37 -36
37 28 30 c15 16 30 29 33 29 3 0 18 -11 32 -23z m140 0 c39 -35 41 -51 8 -83
l-30 -29 -36 38 -35 39 28 29 c15 16 30 29 33 29 3 0 18 -11 32 -23z m148 -13
l31 -35 -31 -31 -31 -31 -36 36 -36 37 29 30 c16 16 32 30 36 30 4 0 21 -16
38 -36z m-2719 -71 c37 -32 38 -52 5 -83 l-25 -24 -27 20 c-48 36 -51 50 -18
84 16 16 30 30 32 30 2 0 17 -12 33 -27z m168 -38 c4 -18 -34 -65 -53 -65 -12
0 -67 53 -67 65 0 4 13 20 28 36 l28 29 30 -24 c17 -13 33 -31 34 -41z m140 0
c4 -18 -34 -65 -53 -65 -13 0 -65 52 -65 65 0 5 12 21 27 37 l27 28 30 -24
c17 -13 33 -31 34 -41z m282 -4 c0 -10 -13 -29 -28 -44 l-28 -27 -32 33 c-18
18 -32 37 -32 42 0 5 12 21 26 36 l27 28 33 -26 c19 -14 34 -33 34 -42z m140
0 c0 -10 -12 -29 -27 -43 l-28 -27 -32 30 c-40 35 -41 45 -7 80 l27 28 33 -26
c19 -14 34 -33 34 -42z m140 -1 c0 -9 -13 -27 -29 -41 l-30 -26 -30 31 c-17
18 -31 36 -31 41 0 5 12 21 26 36 l27 28 33 -27 c19 -15 34 -34 34 -42z m140
1 c0 -12 -48 -61 -60 -61 -12 1 -60 50 -60 61 0 7 12 25 26 40 l27 28 33 -27
c19 -15 34 -33 34 -41z m139 -1 c0 -8 -13 -25 -30 -38 l-29 -24 -29 24 c-37
29 -38 45 -4 80 l26 27 33 -27 c18 -15 33 -34 33 -42z m140 0 c0 -8 -13 -25
-29 -38 l-29 -23 -31 22 c-37 28 -38 45 -3 81 l26 27 33 -27 c18 -15 33 -34
33 -42z m245 42 c40 -37 41 -44 6 -77 l-29 -27 -30 21 c-17 13 -31 29 -31 38
0 13 39 71 49 72 2 1 17 -12 35 -27z m148 -75 l-30 -30 -29 22 c-42 33 -44 50
-9 83 l31 30 33 -37 34 -37 -30 -31z m130 76 c34 -33 35 -53 3 -83 l-24 -23
-35 26 c-19 15 -33 33 -32 41 2 13 46 65 55 66 3 0 18 -12 33 -27z m140 0 c34
-33 35 -53 3 -83 l-24 -23 -35 26 c-19 15 -33 33 -32 42 2 14 45 65 55 65 3 0
18 -12 33 -27z m140 0 c34 -33 35 -53 3 -83 l-24 -23 -35 26 c-19 15 -33 33
-32 42 2 14 45 65 55 65 3 0 18 -12 33 -27z m138 0 c17 -14 30 -33 30 -42 0
-18 -39 -61 -55 -61 -13 0 -65 52 -65 65 0 8 50 65 57 65 2 0 17 -12 33 -27z
m170 -41 c0 -19 -38 -62 -55 -62 -13 0 -65 52 -65 65 0 5 12 21 26 36 l27 28
33 -26 c19 -14 34 -32 34 -41z m140 -1 c0 -10 -11 -28 -25 -41 l-25 -24 -27
20 c-47 36 -51 50 -19 83 l29 30 33 -26 c19 -14 34 -33 34 -42z m140 1 c0 -19
-38 -62 -55 -62 -13 0 -65 52 -65 65 0 5 12 21 26 36 l27 28 33 -26 c19 -14
34 -32 34 -41z m-2740 -49 c37 -32 37 -40 4 -74 l-27 -28 -33 27 c-41 33 -43
54 -6 81 15 11 28 21 30 21 1 0 16 -12 32 -27z m137 1 c18 -14 33 -31 33 -38
0 -6 -16 -27 -35 -46 -19 -18 -32 -36 -30 -40 2 -4 -9 -19 -24 -34 l-29 -28
-31 23 c-37 27 -38 45 -5 83 l25 29 30 -28 c16 -16 31 -26 35 -23 3 4 -8 16
-25 29 -17 13 -31 30 -31 38 0 13 37 59 49 60 2 1 19 -10 38 -25z m140 0 c40
-30 41 -40 7 -75 l-27 -28 -33 27 c-19 15 -34 34 -34 42 0 12 37 58 49 59 2 1
19 -10 38 -25z m139 0 c41 -32 42 -40 8 -75 l-27 -28 -33 26 c-19 14 -34 32
-34 41 0 14 37 62 47 62 3 0 20 -12 39 -26z m140 0 c41 -32 42 -42 6 -77 l-27
-26 -33 25 c-17 14 -32 33 -32 42 0 14 37 62 47 62 3 0 20 -12 39 -26z m140 0
c41 -32 42 -42 6 -77 l-28 -27 -39 35 -38 36 28 29 c16 17 30 30 33 30 2 0 19
-12 38 -26z m140 0 c19 -15 34 -32 34 -38 0 -7 -13 -25 -30 -41 l-29 -28 -37
37 -37 37 28 29 c16 17 30 30 33 30 2 0 19 -12 38 -26z m140 0 c19 -15 34 -32
34 -38 0 -7 -14 -25 -31 -42 l-30 -29 -36 38 -35 39 28 29 c15 16 29 29 32 29
2 0 19 -12 38 -26z m135 3 c40 -36 41 -52 7 -83 l-31 -27 -35 37 -34 38 28 29
c15 16 30 29 33 29 3 0 18 -11 32 -23z m181 -47 c37 -39 68 -76 68 -82 0 -15
-40 -58 -55 -58 -14 0 -65 52 -65 66 0 6 11 21 25 34 14 13 23 26 20 28 -3 3
-16 -8 -30 -24 l-26 -29 -35 38 -36 39 28 29 c15 16 30 29 33 29 2 0 35 -32
73 -70z m107 34 l31 -35 -31 -32 -31 -31 -35 38 -35 38 28 29 c15 16 31 29 35
29 4 0 21 -16 38 -36z m133 9 c34 -33 34 -40 2 -77 l-26 -29 -36 36 -36 37 29
30 c16 16 31 30 34 30 3 0 18 -12 33 -27z m140 0 c35 -33 35 -43 1 -75 l-28
-27 -32 30 c-18 16 -33 32 -33 36 0 8 51 63 59 63 3 0 18 -12 33 -27z m140 0
c35 -33 35 -43 1 -75 l-28 -27 -32 30 c-18 16 -33 32 -33 36 0 8 51 63 59 63
3 0 18 -12 33 -27z m140 0 c35 -33 35 -40 2 -74 l-27 -28 -33 27 c-19 15 -34
33 -34 40 0 11 48 61 59 62 3 0 18 -12 33 -27z m140 0 c35 -33 35 -43 1 -75
l-28 -27 -32 30 c-39 34 -40 41 -10 73 29 31 35 31 69 -1z m137 1 c38 -31 38
-40 5 -75 l-27 -28 -33 27 c-40 32 -42 44 -11 77 28 30 29 30 66 -1z m168 -31
c3 -8 -10 -30 -31 -52 -20 -20 -34 -40 -31 -42 2 -3 -8 -18 -24 -33 l-29 -28
-31 23 c-37 27 -38 45 -5 83 l25 29 30 -28 c16 -16 31 -26 35 -23 3 4 -8 16
-25 29 -38 28 -39 46 -5 76 l27 23 29 -21 c16 -12 32 -28 35 -36z m110 31 c40
-30 41 -40 7 -75 l-27 -28 -33 26 c-19 14 -34 32 -34 41 0 14 37 62 48 62 3 0
20 -11 39 -26z m139 0 c41 -32 42 -40 8 -75 l-27 -28 -33 26 c-19 14 -34 32
-34 41 0 14 37 62 47 62 3 0 20 -12 39 -26z m140 0 c41 -32 42 -40 8 -75 l-27
-28 -33 26 c-19 14 -34 32 -34 41 0 14 37 62 47 62 3 0 20 -12 39 -26z m-2817
-120 c1 -5 -12 -23 -28 -38 l-29 -28 -31 23 c-38 28 -39 45 -4 81 l26 27 33
-27 c18 -15 33 -32 33 -38z m245 38 c40 -37 41 -44 6 -77 l-28 -27 -31 23
c-17 12 -31 29 -31 36 0 13 39 73 48 73 2 0 18 -13 36 -28z m146 -8 l32 -37
-30 -30 -30 -30 -29 22 c-42 33 -45 52 -14 83 14 15 29 27 32 27 4 1 21 -15
39 -35z m140 0 l32 -37 -30 -30 -31 -30 -35 26 c-19 15 -33 33 -32 41 2 15 46
66 57 66 4 0 21 -16 39 -36z m132 9 c34 -33 35 -53 3 -83 l-24 -23 -35 26
c-19 15 -33 33 -32 42 2 14 45 65 55 65 3 0 18 -12 33 -27z m140 0 c34 -33 35
-53 4 -82 -19 -18 -28 -20 -43 -13 -20 11 -51 43 -53 55 -2 9 50 67 59 67 3 0
18 -12 33 -27z m166 -38 c4 -18 -34 -65 -53 -65 -13 0 -65 52 -65 65 0 5 12
21 27 37 l27 28 30 -24 c17 -13 33 -31 34 -41z m140 -2 c2 -10 -9 -30 -23 -43
l-25 -24 -27 20 c-48 36 -51 50 -18 84 l29 30 30 -24 c17 -13 32 -32 34 -43z
m140 2 c4 -18 -34 -65 -53 -65 -13 0 -65 52 -65 65 0 5 12 21 27 37 l27 28 30
-24 c17 -13 33 -31 34 -41z m282 -3 c0 -18 -39 -62 -54 -62 -16 1 -66 47 -66
61 0 7 12 25 26 40 l27 28 33 -26 c19 -14 34 -32 34 -41z m140 0 c0 -18 -39
-62 -54 -62 -16 1 -66 47 -66 61 0 7 12 25 26 40 l27 28 33 -26 c19 -14 34
-32 34 -41z m140 -1 c0 -14 -45 -61 -58 -61 -13 1 -62 49 -62 61 0 7 12 25 26
40 l27 28 33 -27 c19 -15 34 -33 34 -41z m139 2 c1 -13 -45 -63 -58 -63 -10 0
-61 54 -61 65 0 5 12 21 27 37 l26 27 33 -27 c18 -15 33 -32 33 -39z m141 1
c0 -5 -13 -23 -29 -38 l-30 -29 -30 24 c-37 30 -38 45 -5 80 l27 28 33 -27
c19 -15 34 -32 34 -38z m139 0 c1 -5 -12 -23 -28 -38 l-29 -28 -31 23 c-38 28
-39 45 -4 81 l26 27 33 -27 c18 -15 33 -32 33 -38z m245 38 c40 -37 41 -44 6
-77 l-28 -27 -31 23 c-17 12 -31 29 -31 36 0 13 39 73 48 73 2 0 18 -13 36
-28z m146 -8 l32 -37 -30 -29 c-29 -30 -30 -30 -57 -12 -42 27 -47 54 -16 85
14 15 29 27 32 28 4 0 21 -15 39 -35z m132 9 c34 -33 35 -53 4 -82 l-25 -23
-34 26 c-19 15 -34 33 -33 41 2 14 45 65 55 65 3 0 18 -12 33 -27z m-2703 -99
l32 -35 -32 -30 -32 -30 -36 35 -35 36 29 30 c16 16 32 30 36 30 4 0 21 -16
38 -36z m133 9 c34 -33 34 -40 2 -76 l-24 -29 -34 29 c-19 15 -35 32 -35 37
-1 10 49 66 58 66 3 0 18 -12 33 -27z m140 0 c35 -33 35 -43 1 -75 l-28 -27
-32 30 c-18 16 -33 32 -33 36 0 8 51 63 59 63 3 0 18 -12 33 -27z m140 0 c35
-33 35 -43 1 -75 l-28 -27 -32 30 c-18 16 -33 32 -33 36 0 8 51 63 59 63 3 0
18 -12 33 -27z m140 0 c35 -33 35 -43 1 -75 l-28 -27 -32 30 c-18 16 -33 33
-33 39 0 10 49 59 59 60 3 0 18 -12 33 -27z m137 1 c38 -31 38 -40 5 -75 l-27
-28 -33 27 c-40 32 -41 40 -11 75 28 32 29 32 66 1z m143 -1 c35 -33 35 -40 2
-74 l-27 -28 -33 27 c-40 32 -42 47 -12 79 27 29 36 29 70 -4z m135 1 c40 -30
41 -40 7 -75 l-27 -28 -33 26 c-19 14 -34 32 -34 41 0 14 37 62 48 62 3 0 20
-11 39 -26z m139 0 c41 -32 42 -40 8 -75 l-27 -28 -33 26 c-19 14 -34 32 -34
41 0 14 37 62 47 62 3 0 20 -12 39 -26z m141 0 c40 -30 41 -40 7 -75 l-27 -28
-33 26 c-19 14 -34 32 -34 41 0 14 37 62 48 62 3 0 20 -11 39 -26z m139 0 c41
-32 42 -42 6 -77 l-27 -26 -33 25 c-17 14 -32 33 -32 42 0 14 37 62 47 62 3 0
20 -12 39 -26z m140 0 c41 -32 42 -42 5 -78 l-28 -27 -38 36 -38 35 28 30 c16
17 30 30 33 30 2 0 19 -12 38 -26z m138 1 c39 -31 40 -48 6 -80 l-28 -27 -37
37 -37 37 28 29 c15 16 30 29 33 29 3 -1 19 -12 35 -25z m142 -2 c18 -16 34
-33 34 -39 0 -5 -13 -23 -30 -39 l-29 -28 -37 37 -37 37 28 29 c16 17 30 30
32 30 2 0 20 -12 39 -27z m135 4 c39 -35 41 -51 8 -83 l-30 -29 -36 38 -35 39
28 29 c15 16 30 29 33 29 3 0 18 -11 32 -23z m148 -12 l31 -36 -32 -31 -32
-31 -34 38 -34 37 28 29 c15 16 31 29 35 29 4 0 21 -16 38 -35z m133 8 c35
-33 35 -43 0 -76 l-28 -27 -34 35 -34 35 29 30 c16 16 31 30 34 30 3 0 18 -12
33 -27z m140 0 c35 -33 35 -43 0 -76 l-28 -27 -34 35 -34 35 29 30 c16 16 31
30 34 30 3 0 18 -12 33 -27z m140 0 c35 -33 35 -43 1 -75 l-28 -27 -32 30
c-18 16 -33 32 -33 36 0 8 51 63 59 63 3 0 18 -12 33 -27z m146 -6 c29 -26 28
-38 -5 -69 l-28 -27 -32 30 c-18 16 -33 32 -33 36 0 15 54 62 64 56 6 -3 21
-15 34 -26z m-2688 -115 c0 -19 -38 -62 -55 -62 -13 0 -65 52 -65 65 0 5 12
21 26 36 l27 28 33 -26 c19 -14 34 -32 34 -41z m140 0 c0 -18 -39 -62 -54 -62
-16 1 -66 47 -66 61 0 7 12 25 26 40 l27 28 33 -26 c19 -14 34 -32 34 -41z
m140 -1 c0 -18 -39 -61 -55 -61 -13 0 -65 52 -65 65 0 5 12 21 26 36 l27 28
33 -27 c19 -15 34 -33 34 -41z m140 1 c0 -14 -44 -62 -57 -62 -14 1 -63 49
-63 61 0 7 12 25 26 40 l27 28 33 -27 c19 -15 34 -33 34 -40z m139 -2 c0 -8
-13 -25 -30 -38 l-29 -24 -29 24 c-37 29 -38 45 -5 79 l27 28 33 -27 c19 -15
34 -34 33 -42z m140 4 c1 -5 -12 -23 -28 -38 l-29 -28 -31 23 c-38 28 -39 45
-4 81 l26 27 33 -27 c18 -15 33 -32 33 -38z m104 40 c40 -34 41 -46 7 -79
l-28 -27 -31 23 c-17 12 -31 29 -31 37 0 12 39 70 49 71 2 1 17 -11 34 -25z
m141 -2 c40 -37 41 -44 6 -77 l-28 -27 -31 23 c-17 12 -31 31 -31 41 0 14 35
63 49 67 2 1 17 -12 35 -27z m140 0 c40 -37 41 -44 6 -77 l-29 -27 -28 22
c-41 32 -44 51 -14 82 14 16 28 28 30 28 2 0 17 -13 35 -28z m146 -8 l32 -37
-30 -30 -30 -30 -29 22 c-41 33 -44 51 -14 83 14 15 29 27 32 28 4 0 21 -16
39 -36z m132 9 c34 -33 35 -53 3 -83 l-24 -23 -35 26 c-19 15 -33 33 -32 42 2
14 45 65 55 65 3 0 18 -12 33 -27z m140 0 c34 -33 35 -53 3 -83 l-24 -23 -35
26 c-19 15 -33 33 -32 42 2 14 45 65 55 65 3 0 18 -12 33 -27z m140 0 c34 -33
35 -53 4 -82 -19 -18 -28 -20 -43 -13 -20 11 -51 43 -53 55 -2 9 50 67 59 67
3 0 18 -12 33 -27z m166 -40 c2 -10 -9 -30 -23 -43 l-25 -24 -27 20 c-48 36
-51 50 -18 84 l29 30 30 -24 c17 -13 32 -32 34 -43z m120 34 c28 -26 28 -44 0
-74 -28 -30 -38 -29 -71 5 -33 35 -33 39 0 74 27 29 34 28 71 -5z m160 -32 c4
-18 -34 -65 -53 -65 -13 0 -65 52 -65 65 0 5 12 21 27 37 l27 28 30 -24 c17
-13 33 -31 34 -41z m142 -3 c0 -19 -38 -62 -55 -62 -13 0 -65 52 -65 65 0 5
12 21 26 36 l27 28 33 -26 c19 -14 34 -32 34 -41z m140 0 c0 -19 -38 -62 -55
-62 -13 0 -65 52 -65 65 0 5 12 21 26 36 l27 28 33 -26 c19 -14 34 -32 34 -41z
m140 -2 c0 -16 -42 -60 -57 -60 -12 0 -63 53 -63 65 0 5 12 21 26 36 l27 28
33 -27 c19 -15 34 -34 34 -42z m140 3 c0 -13 -46 -63 -58 -63 -13 1 -62 49
-62 61 0 7 12 25 26 40 l27 28 33 -27 c19 -15 34 -32 34 -39z m139 -3 c0 -8
-13 -25 -30 -38 l-29 -24 -29 24 c-37 29 -38 45 -4 80 l26 27 33 -27 c18 -15
33 -34 33 -42z m-2743 -46 c41 -32 42 -42 6 -77 l-27 -26 -33 25 c-17 14 -32
33 -32 42 0 14 37 62 47 62 3 0 20 -12 39 -26z m140 0 c41 -32 42 -42 6 -77
l-28 -27 -39 35 -38 36 28 29 c16 17 30 30 33 30 2 0 19 -12 38 -26z m140 0
c18 -14 32 -30 29 -34 -3 -5 13 -23 35 -40 46 -37 50 -57 15 -90 l-25 -24 -27
20 c-48 36 -51 50 -18 84 16 16 25 30 21 30 -4 0 -17 -11 -29 -25 l-22 -25
-32 26 c-18 14 -33 33 -33 42 0 14 37 62 47 62 3 0 20 -12 39 -26z m137 0 c40
-34 41 -46 5 -81 l-29 -28 -36 38 -35 39 28 29 c15 16 30 29 32 29 2 0 18 -12
35 -26z m138 3 c39 -35 41 -51 8 -83 l-30 -29 -36 38 -35 39 28 29 c15 16 30
29 33 29 3 0 18 -11 32 -23z m142 -2 c15 -13 27 -29 27 -34 0 -6 18 -25 40
-42 22 -18 40 -39 40 -48 0 -18 -39 -61 -55 -61 -13 0 -65 52 -65 65 0 5 12
22 27 37 15 15 22 28 16 28 -7 0 -21 -12 -33 -27 l-21 -27 -37 37 -36 37 29
30 c16 16 31 30 34 30 3 0 18 -12 34 -25z m139 -2 c35 -33 35 -43 -1 -77 l-28
-27 -32 37 -32 36 27 29 c15 16 30 29 33 29 3 0 18 -12 33 -27z m140 0 c35
-33 35 -43 1 -75 l-28 -27 -32 30 c-18 16 -33 32 -33 36 0 8 51 63 59 63 3 0
18 -12 33 -27z m140 0 c35 -33 35 -43 0 -76 l-28 -27 -34 35 -34 35 29 30 c16
16 31 30 34 30 3 0 18 -12 33 -27z m140 0 c35 -33 35 -43 1 -75 l-28 -27 -32
30 c-18 16 -33 32 -33 36 0 8 51 63 59 63 3 0 18 -12 33 -27z m138 0 c37 -33
37 -42 3 -75 l-28 -27 -32 30 c-39 34 -40 41 -10 73 29 31 32 31 67 -1z m140
0 c37 -33 37 -42 3 -75 l-28 -27 -32 30 c-39 34 -41 46 -10 76 28 28 31 28 67
-4z m139 1 c38 -31 38 -40 5 -75 l-27 -28 -33 27 c-40 32 -42 47 -11 77 29 30
30 30 66 -1z m137 0 c41 -32 42 -40 8 -75 l-27 -28 -33 27 c-19 15 -34 33 -34
41 0 13 37 61 47 61 3 0 20 -12 39 -26z m140 0 c41 -32 42 -40 8 -75 l-27 -28
-33 26 c-19 14 -34 32 -34 41 0 14 37 62 47 62 3 0 20 -12 39 -26z m141 0 c40
-30 41 -40 7 -75 l-27 -28 -33 26 c-19 14 -34 32 -34 41 0 14 37 62 48 62 3 0
20 -11 39 -26z m139 0 c41 -32 42 -42 6 -77 l-28 -27 -39 35 -38 36 28 29 c16
17 30 30 33 30 2 0 19 -12 38 -26z m140 0 c41 -32 42 -42 5 -78 l-28 -27 -38
36 -38 35 28 30 c16 17 30 30 33 30 2 0 19 -12 38 -26z m140 -1 c18 -16 34
-33 34 -39 0 -5 -13 -23 -29 -38 l-28 -27 -38 36 -38 35 28 30 c16 17 30 30
32 30 2 0 20 -12 39 -27z m137 1 c40 -34 41 -46 5 -81 l-29 -28 -36 38 -35 39
28 29 c15 16 30 29 32 29 2 0 18 -12 35 -26z m-2711 -81 c34 -33 35 -53 3 -83
l-24 -23 -35 26 c-19 15 -33 33 -32 42 2 14 45 65 55 65 3 0 18 -12 33 -27z
m146 -6 c29 -26 28 -48 -3 -77 l-24 -23 -35 26 c-39 30 -40 46 -6 81 24 27 31
26 68 -7z m134 6 c15 -15 28 -33 28 -42 0 -16 -38 -61 -52 -61 -12 0 -68 52
-68 64 0 10 50 66 59 66 3 0 18 -12 33 -27z m286 -6 c29 -26 28 -48 -3 -77
l-25 -24 -27 20 c-48 36 -51 50 -19 83 30 32 36 31 74 -2z m160 -32 c4 -18
-34 -65 -53 -65 -13 0 -65 52 -65 65 0 5 12 21 27 37 l27 28 30 -24 c17 -13
33 -31 34 -41z m282 -5 c0 -15 -19 -36 -49 -54 -13 -9 -71 39 -71 58 0 5 12
22 26 37 l27 28 33 -27 c19 -15 34 -34 34 -42z m140 2 c0 -15 -45 -62 -58 -62
-13 1 -62 49 -62 61 0 7 12 25 26 40 l27 28 33 -26 c19 -14 34 -32 34 -41z
m140 1 c0 -13 -46 -63 -58 -63 -13 1 -62 49 -62 61 0 7 12 25 26 40 l27 28 33
-27 c19 -15 34 -32 34 -39z m139 -3 c0 -8 -13 -25 -30 -38 l-29 -24 -29 24
c-37 29 -38 45 -4 80 l26 27 33 -27 c18 -15 33 -34 33 -42z m137 5 c1 -7 -11
-25 -26 -40 l-29 -28 -30 24 c-37 30 -38 45 -4 81 l26 27 31 -25 c16 -15 31
-32 32 -39z m107 39 c40 -34 41 -46 7 -79 l-28 -27 -31 23 c-17 12 -31 29 -31
37 0 12 39 70 49 71 2 1 17 -11 34 -25z m141 -2 c40 -37 41 -44 6 -77 l-28
-27 -31 23 c-17 12 -31 30 -31 39 0 14 37 68 49 69 2 1 17 -12 35 -27z m140 0
c40 -37 41 -44 6 -77 l-29 -27 -28 22 c-41 32 -44 51 -14 82 14 16 28 28 30
28 2 0 17 -13 35 -28z m138 1 c34 -33 35 -53 3 -83 l-24 -23 -35 26 c-19 15
-33 32 -32 39 2 13 47 67 55 68 3 0 18 -12 33 -27z m140 0 c34 -33 35 -53 3
-83 l-24 -23 -35 26 c-19 15 -33 33 -32 42 2 14 45 65 55 65 3 0 18 -12 33
-27z m140 0 c34 -33 35 -53 4 -82 -19 -18 -28 -20 -43 -13 -20 11 -51 43 -53
55 -2 9 50 67 59 67 3 0 18 -12 33 -27z m140 0 c35 -33 35 -53 3 -83 l-25 -24
-27 20 c-48 36 -51 50 -18 84 16 16 31 30 34 30 3 0 18 -12 33 -27z m146 -6
c28 -26 28 -44 0 -74 -28 -30 -38 -29 -71 5 -33 35 -33 39 0 74 27 29 34 28
71 -5z m162 -35 c0 -19 -38 -62 -55 -62 -13 0 -65 52 -65 65 0 5 12 21 26 36
l27 28 33 -26 c19 -14 34 -32 34 -41z m-2738 -49 c35 -33 35 -43 1 -75 l-28
-27 -32 30 c-39 34 -40 45 -10 74 29 30 36 30 69 -2z m140 0 c35 -33 35 -40 2
-74 l-27 -28 -33 27 c-40 32 -41 39 -12 75 27 34 35 34 70 0z m138 0 c17 -14
30 -31 30 -38 0 -6 -16 -26 -35 -45 -19 -18 -32 -36 -30 -40 2 -4 -9 -19 -24
-34 l-29 -28 -31 23 c-38 28 -39 50 -5 84 l26 26 29 -27 c16 -15 31 -25 35
-22 3 4 -8 16 -25 29 -37 27 -39 46 -8 76 28 28 31 28 67 -4z m138 1 c39 -33
39 -40 6 -75 l-27 -28 -33 26 c-40 30 -42 48 -12 80 27 29 27 29 66 -3z m138
0 c41 -32 42 -40 8 -75 l-27 -28 -33 26 c-19 14 -34 32 -34 41 0 14 37 62 47
62 3 0 20 -12 39 -26z m140 0 c41 -32 42 -40 8 -75 l-27 -28 -33 26 c-19 14
-34 32 -34 41 0 14 37 62 47 62 3 0 20 -12 39 -26z m140 0 c41 -32 42 -42 5
-78 l-28 -27 -38 36 -38 35 28 30 c16 17 30 30 33 30 2 0 19 -12 38 -26z m142
-3 c17 -17 32 -34 32 -39 0 -4 -13 -21 -29 -36 l-28 -27 -38 36 -38 35 28 30
c16 17 31 30 35 30 3 0 20 -13 38 -29z m133 6 c39 -33 41 -51 10 -81 l-28 -27
-38 36 -38 35 28 30 c16 17 31 30 34 30 3 -1 18 -11 32 -23z m142 -2 c15 -13
27 -28 27 -34 0 -5 18 -24 40 -41 45 -36 49 -54 18 -87 -28 -30 -38 -29 -71 5
-33 35 -33 42 -2 72 14 13 23 25 21 28 -3 2 -17 -9 -31 -24 l-27 -29 -35 39
-35 38 28 29 c15 16 30 29 33 29 3 0 18 -12 34 -25z m138 1 c38 -33 39 -45 7
-80 l-29 -31 -35 38 -36 39 28 29 c15 16 30 29 33 29 3 0 18 -11 32 -24z m142
-1 c33 -30 33 -42 1 -79 l-26 -29 -36 36 -36 37 29 30 c16 16 31 30 34 30 3 0
18 -12 34 -25z m140 0 c34 -30 34 -45 -1 -78 l-28 -27 -34 35 -34 35 29 30
c16 16 31 30 34 30 3 0 18 -12 34 -25z m139 -2 c35 -33 35 -43 0 -76 l-28 -27
-34 35 -34 35 29 30 c16 16 31 30 34 30 3 0 18 -12 33 -27z m140 0 c35 -33 35
-43 1 -75 l-28 -27 -32 30 c-18 16 -33 33 -33 39 0 10 49 59 59 60 3 0 18 -12
33 -27z m140 0 c35 -33 35 -43 1 -75 l-28 -27 -32 30 c-18 16 -33 31 -33 35 0
11 45 63 54 63 6 1 23 -11 38 -26z m140 0 c35 -33 35 -43 1 -75 l-28 -27 -32
30 c-39 34 -41 46 -10 76 29 29 35 28 69 -4z m138 0 c37 -33 37 -42 3 -75
l-28 -27 -32 30 c-39 34 -40 45 -11 76 27 29 32 29 68 -4z m137 1 c40 -30 41
-40 7 -75 l-27 -28 -33 27 c-19 15 -34 33 -34 41 0 14 38 61 48 61 3 0 20 -11
39 -26z m140 0 c40 -30 41 -43 5 -77 l-27 -26 -33 28 c-17 16 -32 35 -32 42 0
12 38 59 48 59 3 0 20 -11 39 -26z m-2677 -120 c0 -5 -13 -23 -29 -38 l-30
-29 -30 24 c-37 30 -38 45 -5 80 l27 28 33 -27 c19 -15 34 -32 34 -38z m140 0
c0 -5 -13 -23 -29 -38 l-30 -29 -30 24 c-37 30 -38 45 -5 80 l27 28 33 -27
c19 -15 34 -32 34 -38z m250 30 l32 -37 -30 -30 -30 -29 -31 23 c-17 12 -31
32 -31 42 0 18 36 63 51 66 4 1 21 -15 39 -35z m134 8 c40 -37 41 -44 6 -77
l-28 -27 -35 26 c-19 15 -34 33 -33 40 2 13 46 65 55 66 2 0 17 -13 35 -28z
m146 -8 l32 -37 -30 -30 -30 -30 -35 27 c-19 15 -34 33 -33 41 2 16 45 65 57
65 4 0 21 -16 39 -36z m132 9 c34 -33 35 -53 4 -82 -19 -18 -28 -20 -43 -13
-20 11 -51 43 -53 55 -2 9 50 67 59 67 3 0 18 -12 33 -27z m140 0 c34 -33 35
-53 3 -83 l-24 -23 -35 26 c-19 15 -33 33 -32 42 2 14 45 65 55 65 3 0 18 -12
33 -27z m140 0 c15 -15 28 -33 28 -42 0 -18 -39 -61 -55 -61 -13 0 -65 52 -65
65 0 9 50 65 59 65 3 0 18 -12 33 -27z m166 -38 c4 -18 -34 -65 -53 -65 -13 0
-65 52 -65 65 0 5 12 21 27 37 l27 28 30 -24 c17 -13 33 -31 34 -41z m282 -3
c0 -19 -38 -62 -55 -62 -13 0 -65 52 -65 65 0 5 12 21 26 36 l27 28 33 -26
c19 -14 34 -32 34 -41z m140 2 c0 -18 -40 -64 -55 -64 -13 0 -65 52 -65 65 0
5 12 21 26 36 l27 28 33 -26 c19 -14 34 -32 34 -39z m140 -3 c0 -14 -45 -61
-59 -61 -10 0 -61 54 -61 65 0 5 12 21 26 36 l27 28 33 -27 c19 -15 34 -33 34
-41z m140 3 c0 -14 -46 -64 -58 -64 -13 1 -62 49 -62 61 0 7 12 25 26 40 l27
28 33 -26 c19 -14 34 -31 34 -39z m140 0 c0 -5 -13 -23 -29 -38 l-30 -29 -30
24 c-37 30 -38 45 -5 80 l27 28 33 -27 c19 -15 34 -32 34 -38z m140 0 c0 -5
-13 -23 -29 -38 l-30 -29 -30 24 c-37 30 -38 45 -5 80 l27 28 33 -27 c19 -15
34 -32 34 -38z m103 40 c40 -34 41 -46 7 -79 l-29 -28 -30 24 c-16 13 -30 30
-30 37 -1 12 38 70 48 71 2 1 17 -11 34 -25z m141 -2 c40 -37 41 -44 6 -77
l-29 -28 -30 24 c-16 13 -30 32 -30 41 -1 14 34 63 48 67 2 1 17 -12 35 -27z
m140 0 c40 -37 41 -44 6 -77 l-29 -27 -28 22 c-40 31 -43 50 -15 82 14 15 27
28 30 28 2 0 18 -13 36 -28z m146 -8 l32 -37 -30 -30 -30 -30 -35 27 c-19 15
-34 33 -33 41 2 16 45 65 57 65 4 0 21 -16 39 -36z m-629 -77 c37 -33 41 -52
15 -76 -31 -29 -50 -26 -81 10 l-26 32 27 28 c15 16 30 29 33 29 3 0 18 -11
32 -23z"/>
</g>
</svg>
