<svg xmlns="http://www.w3.org/2000/svg" version="1.1" viewBox="-5.0 -10.0 110.0 135.0" fill="#635b54">
 <path d="m99.016 47.641-2.3438-2.3281-13.859-13.875c-1.3008-1.2773-3.3867-1.2773-4.6875 0-1.2461 1.3125-1.2461 3.375 0 4.6875l12.625 12.625c0.31641 0.3125 0.49609 0.74219 0.49609 1.1875s-0.17969 0.875-0.49609 1.1875l-12.625 12.703c-0.76562 0.58594-1.2422 1.4727-1.3047 2.4336-0.0625 0.96094 0.28906 1.9062 0.97266 2.5859 0.67969 0.68359 1.625 1.0352 2.5859 0.97266 0.96094-0.0625 1.8477-0.53906 2.4336-1.3047l13.828-13.828 2.375-2.3594c1.2695-1.3047 1.2695-3.3828 0-4.6875z"/>
 <path d="m9.2812 51.203c-0.31641-0.3125-0.49609-0.74219-0.49609-1.1875s0.17969-0.875 0.49609-1.1875l12.594-12.625c1.2461-1.3125 1.2461-3.375 0-4.6875-1.3008-1.2773-3.3867-1.2773-4.6875 0l-13.859 13.797-2.3438 2.3438c-1.2695 1.3047-1.2695 3.3828 0 4.6875l2.375 2.3438 13.828 13.875c1.332 1.0195 3.2109 0.89453 4.3945-0.29297 1.1875-1.1836 1.3125-3.0625 0.29297-4.3945z"/>
 <path d="m65.109 23.828c-1.6055-0.91797-3.6523-0.36719-4.5781 1.2344l-26.875 46.531c-0.94141 1.6055-0.40234 3.668 1.2031 4.6094s3.668 0.40234 4.6094-1.2031l26.875-46.594c0.91797-1.6055 0.36719-3.6523-1.2344-4.5781z"/></svg>