<svg xmlns="http://www.w3.org/2000/svg" data-name="Layer 1" viewBox="0 0 64 80" x="0px" y="0px" fill="#635b54"><path d="M52.92,20.18a2.2,2.2,0,0,0-.92-.82V13a11,11,0,0,0-22,0V52a8,8,0,0,1-16,0V47.26l9.87-17.77,0-.07,0-.08A1.14,1.14,0,0,0,24,29V3a1,1,0,0,0-1-1H3A1,1,0,0,0,2,3V29a1.14,1.14,0,0,0,.07.32l0,.08,0,.07L12,47.26V52a10,10,0,0,0,20,0V13a9,9,0,0,1,18,0v6.36a2.2,2.2,0,0,0-.92.82L40.15,34.47a1,1,0,0,0-.1.83l4.61,14.77A1,1,0,0,0,44,51V61a1,1,0,0,0,1,1H57a1,1,0,0,0,1-1V51a1,1,0,0,0-.66-.93L62,35.3a1,1,0,0,0-.1-.83ZM19,4h3V28H19ZM14,4h3V28H14ZM9,4h3V28H9ZM4,4H7V28H4Zm.7,26H21.3l-5,9H9.7Zm6.11,11h4.38L13,44.94ZM51,34a1,1,0,1,1-1,1A1,1,0,0,1,51,34Zm5,26H46V52H56Zm-.74-10H46.74L42.09,35.14,50,22.49v9.69a3,3,0,1,0,2,0V22.49l7.91,12.65Z"/></svg>