<svg viewBox="4.135135135135135 20.294 91.8918918918919 59.67" version="1.1" xmlns="http://www.w3.org/2000/svg" style="max-height: 500px" width="91.8918918918919" height="59.67" fill="#635b54">
 <path d="m92.871 21.285h-85.742c-1.0117 0-1.8281 0.81641-1.8281 1.8281v53.773c0 1.0117 0.81641 1.8281 1.8281 1.8281h85.742c1.0117 0 1.8281-0.81641 1.8281-1.8281v-53.773c0-1.0117-0.81641-1.8281-1.8281-1.8281zm-83.914 4.2773 30.055 24.191-30.055 24.195zm30.633 13.816-0.43359-2.8516c-0.042969-0.29688 0.11719-0.58984 0.39453-0.70703l2.6562-1.1211c0.60156-0.25781 1.0977-0.68359 1.4375-1.2422l1.5-2.4609c0.12109-0.19922 0.33594-0.31641 0.5625-0.31641 0.066407 0 0.12891 0.011718 0.19531 0.03125l2.7539 0.84766c0.62109 0.19531 1.2812 0.18359 1.9023-0.023438l2.7344-0.92188c0.28516-0.097656 0.59766 0.011719 0.76172 0.26953l1.5664 2.418c0.35156 0.54688 0.86719 0.96094 1.4688 1.1992l2.6875 1.0547c0.28125 0.10937 0.44922 0.39453 0.41406 0.69531l-0.35156 2.8633c-0.078125 0.64453 0.042968 1.293 0.35156 1.8633l1.3828 2.5352c0.14453 0.26172 0.089843 0.58984-0.12891 0.79688l-2.1133 1.9609c-0.47656 0.44531-0.79688 1.0195-0.92578 1.6562l-0.56641 2.8281c-0.0625 0.29688-0.3125 0.51172-0.60938 0.53125l-2.8828 0.14453c-0.65234 0.03125-1.2656 0.26953-1.7734 0.67187l-2.2539 1.7969c-0.23828 0.1875-0.56641 0.19531-0.80859 0.011718l-2.2969-1.7383c-0.51953-0.39453-1.1406-0.60938-1.793-0.62891l-2.8828-0.066407c-0.29687-0.007812-0.5625-0.21875-0.62891-0.51172l-0.64453-2.8086c-0.14453-0.63281-0.48047-1.1992-0.96875-1.6328l-2.1641-1.9062c-0.22656-0.19922-0.28516-0.52344-0.15234-0.79688l1.3086-2.5664c0.29688-0.57812 0.40234-1.2305 0.30469-1.875zm3.2539 14.547 2.5039 0.0625c0.14062 0 0.26953 0.046875 0.38281 0.13281l2.3047 1.7383c0.4375 0.32812 0.94531 0.52344 1.4609 0.59766l-3.7773 10.785-1.5156-3.6367c-0.12891-0.3125-0.38281-0.5625-0.70703-0.67578-0.31641-0.11719-0.67188-0.097657-0.97656 0.0625l-3.6328 1.8594 3.9531-10.914zm9.5977 1.4883c0.011719-0.035156 0.019532-0.074218 0.023438-0.10937l1.6211-1.293c0.10937-0.085938 0.23828-0.13281 0.37891-0.14062l2.6133-0.13281 4.0273 11.109-3.6328-1.8594c-0.30469-0.15234-0.65625-0.17578-0.97656-0.0625-0.31641 0.11719-0.57422 0.35938-0.70703 0.67578l-1.5352 3.6875-3.0391-8.3867 1.2188-3.4844zm11.273-13.07-1.3828-2.5352c-0.066406-0.12109-0.089843-0.26172-0.074219-0.39453l0.35156-2.8633c0.17578-1.4062-0.62109-2.75-1.9453-3.2656l-2.6875-1.0547c-0.12891-0.046875-0.23828-0.14062-0.3125-0.25781l-1.5664-2.418c-0.76953-1.1875-2.25-1.707-3.5898-1.25l-2.7344 0.92187c-0.13281 0.042969-0.26953 0.046876-0.40234 0l-2.7617-0.84766c-1.3516-0.41406-2.8164 0.14062-3.5508 1.3477l-1.5 2.4609c-0.074219 0.11719-0.17578 0.20703-0.30469 0.26172l-2.6562 1.1211c-1.3047 0.55469-2.0664 1.9141-1.8594 3.3164l0.43359 2.8516c0.019531 0.13281 0 0.27344-0.066406 0.39453l-1.3086 2.5664c-0.17578 0.34766-0.27344 0.71484-0.31641 1.0781l-23.41-18.836h75.82l-23.797 18.953c0.011719-0.53125-0.10547-1.0664-0.37109-1.5547zm-23.906 9.9023c0.18359 0.35156 0.42578 0.66406 0.71875 0.92188l-4.9844 13.754c-0.17188 0.46875-0.035157 1 0.33984 1.3281 0.37891 0.32812 0.91406 0.39453 1.3594 0.17188l5.2148-2.6641 2.2383 5.3555c0.1875 0.45703 0.63281 0.75 1.1289 0.75h0.035156c0.50391-0.011719 0.94922-0.33984 1.1133-0.81641l2.9805-8.5078 3.0898 8.5195c0.17188 0.47656 0.61719 0.79297 1.1133 0.80469h0.03125c0.49219 0 0.93359-0.29297 1.1289-0.75l2.2383-5.3555 5.2148 2.6641c0.44531 0.22656 0.98828 0.16016 1.3594-0.17188 0.37109-0.32812 0.51172-0.85938 0.33984-1.3281l-5.1133-14.082c0.23047-0.23047 0.43359-0.49219 0.58594-0.79297l28.594 23.016-77.066-0.003906 28.344-22.809zm21.297-2.3906c-0.10938-0.085938-0.22656-0.14453-0.34766-0.1875l30.285-24.113 0.003906 48.395-29.934-24.094z"/>
</svg>