<svg xml:space="preserve" viewBox="3.4000000000000004 3.4 92.75 93.25" y="0px" x="0px" version="1.1" xmlns:xlink="http://www.w3.org/1999/xlink" xmlns="http://www.w3.org/2000/svg" style="max-height: 500px" width="92.75" height="93.25" fill="#635b54"><polygon points="76.442,49.981 76.405,48.422   76.257,46.863 76.034,45.304 75.7,43.782 75.292,42.26 74.772,40.775 74.216,39.327 73.51,37.879 72.768,36.506 71.952,35.206   71.024,33.907 70.022,32.719 68.983,31.531 67.869,30.455 66.682,29.415 65.42,28.487 64.121,27.596 62.785,26.817 61.375,26.074   59.965,25.443 58.48,24.923 56.996,24.441 55.474,24.069 53.915,23.81 52.357,23.624 50.798,23.513 49.239,23.513 47.681,23.624   46.122,23.81 44.563,24.069 43.041,24.441 41.557,24.923 40.073,25.443 38.662,26.074 37.252,26.817 35.916,27.596 34.617,28.487   33.355,29.415 32.168,30.455 31.054,31.531 30.015,32.719 29.013,33.907 28.085,35.206 27.269,36.506 26.527,37.879 25.821,39.327   25.265,40.775 24.745,42.26 24.337,43.782 24.003,45.304 23.78,46.863 23.632,48.422 23.595,49.981 23.632,51.541 23.78,53.1   24.003,54.659 24.337,56.181 24.745,57.703 25.265,59.188 25.821,60.636 26.527,62.084 27.269,63.457 28.085,64.756 29.013,66.056   30.015,67.244 31.054,68.432 32.168,69.508 33.355,70.548 34.617,71.476 35.916,72.367 37.252,73.146 38.662,73.889 40.073,74.52   41.557,75.04 43.041,75.522 44.563,75.893 46.122,76.153 47.681,76.339 49.239,76.45 50.798,76.45 52.357,76.339 53.915,76.153   55.474,75.893 56.996,75.522 58.48,75.04 59.965,74.52 61.375,73.889 62.785,73.146 64.121,72.367 65.42,71.476 66.682,70.548   67.869,69.508 68.983,68.432 70.022,67.244 71.024,66.056 71.952,64.756 72.768,63.457 73.51,62.084 74.216,60.636 74.772,59.188   75.292,57.703 75.7,56.181 76.034,54.659 76.257,53.1 76.405,51.541 76.442,49.981" stroke-miterlimit="10" stroke-linecap="square" stroke="#635b54" fill="none"/><line y2="4.58" x2="50.019" y1="95.42" x1="50.019" stroke-miterlimit="10" stroke-linecap="square" stroke="#635b54" fill="none"/><line y2="49.981" x2="4.631" y1="49.981" x1="95.369" stroke-miterlimit="10" stroke-linecap="square" stroke="#635b54" fill="none"/><line y2="89.332" x2="27.306" y1="10.668" x1="72.694" stroke-miterlimit="10" stroke-linecap="square" stroke="#635b54" fill="none"/><line y2="72.701" x2="89.32" y1="27.299" x1="10.717" stroke-miterlimit="10" stroke-linecap="square" stroke="#635b54" fill="none"/><line y2="72.701" x2="10.717" y1="27.299" x1="89.32" stroke-miterlimit="10" stroke-linecap="square" stroke="#635b54" fill="none"/><line y2="89.332" x2="72.694" y1="10.668" x1="27.306" stroke-miterlimit="10" stroke-linecap="square" stroke="#000000" fill="none"/></svg>