<svg xml:space="preserve" style="max-height: 500px" viewBox="0 0.1500015 81.5 99.7" y="0px" x="0px" version="1.1" xmlns:xlink="http://www.w3.org/1999/xlink" xmlns="http://www.w3.org/2000/svg" width="81.5" height="99.7" fill="#d4a373"><path d="M1.6,93.3l0.9,0.1c0,0,0,0,0,0c0.1,0,0.3-0.1,0.3-0.3c0-0.2-0.1-0.3-0.3-0.3l-0.9-0.1c-0.2,0-0.3,0.1-0.3,0.3  C1.3,93.2,1.4,93.3,1.6,93.3z"/><path d="M47.4,52.7c-0.1,0.6-0.2,1.2-0.4,1.8c0,0.2,0.1,0.3,0.2,0.3c0,0,0,0,0.1,0c0.1,0,0.3-0.1,0.3-0.2c0.1-0.6,0.2-1.2,0.4-1.8  c0-0.2-0.1-0.3-0.2-0.4C47.5,52.5,47.4,52.6,47.4,52.7z"/><path d="M46.7,56.3l-0.3,1.8c0,0.2,0.1,0.3,0.2,0.3c0,0,0,0,0.1,0c0.1,0,0.3-0.1,0.3-0.2l0.3-1.8c0-0.2-0.1-0.3-0.2-0.3  C46.8,56,46.7,56.1,46.7,56.3z"/><path d="M49.1,45.7c-0.2,0.6-0.3,1.2-0.5,1.7c0,0.2,0.1,0.3,0.2,0.4c0,0,0.1,0,0.1,0c0.1,0,0.3-0.1,0.3-0.2c0.2-0.6,0.3-1.2,0.5-1.7  c0-0.2,0-0.3-0.2-0.4C49.3,45.5,49.1,45.6,49.1,45.7z"/><path d="M50.6,42.1c-0.2-0.1-0.3,0-0.4,0.2c-0.2,0.6-0.4,1.1-0.6,1.7c-0.1,0.2,0,0.3,0.2,0.4c0,0,0.1,0,0.1,0c0.1,0,0.2-0.1,0.3-0.2  c0.2-0.6,0.4-1.1,0.6-1.7C50.8,42.3,50.7,42.2,50.6,42.1z"/><path d="M48.1,49.2c-0.1,0.6-0.3,1.2-0.4,1.8c0,0.2,0.1,0.3,0.2,0.4c0,0,0,0,0.1,0c0.1,0,0.3-0.1,0.3-0.2c0.1-0.6,0.3-1.2,0.4-1.8  c0-0.2-0.1-0.3-0.2-0.4C48.3,49,48.2,49.1,48.1,49.2z"/><path d="M56,32.9c-0.1-0.1-0.3-0.1-0.4,0c-0.4,0.4-0.8,0.9-1.2,1.4c-0.1,0.1-0.1,0.3,0.1,0.4c0.1,0,0.1,0.1,0.2,0.1  c0.1,0,0.2,0,0.2-0.1c0.4-0.5,0.8-0.9,1.2-1.3C56.2,33.2,56.2,33,56,32.9z"/><path d="M15.1,94.4C15.1,94.4,15.1,94.4,15.1,94.4c0.6,0,1.2,0,1.8-0.1c0.2,0,0.3-0.1,0.3-0.3c0-0.2-0.1-0.3-0.3-0.3  c-0.6,0-1.2,0-1.8,0.1c-0.2,0-0.3,0.1-0.3,0.3S14.9,94.4,15.1,94.4z"/><path d="M46,59.8l-0.3,1.8c0,0.2,0.1,0.3,0.2,0.3c0,0,0,0,0.1,0c0.1,0,0.3-0.1,0.3-0.2l0.3-1.8c0-0.2-0.1-0.3-0.2-0.3  C46.2,59.6,46,59.7,46,59.8z"/><path d="M18.7,94.2C18.7,94.2,18.7,94.2,18.7,94.2c0.6-0.1,1.2-0.1,1.8-0.2c0.2,0,0.3-0.2,0.3-0.3c0-0.2-0.2-0.3-0.3-0.3  c-0.6,0.1-1.2,0.2-1.8,0.2c-0.2,0-0.3,0.2-0.3,0.3C18.4,94.1,18.5,94.2,18.7,94.2z"/><path d="M4.3,93.6c0.6,0.1,1.2,0.1,1.8,0.2c0,0,0,0,0,0c0.2,0,0.3-0.1,0.3-0.3c0-0.2-0.1-0.3-0.3-0.3c-0.6-0.1-1.2-0.1-1.8-0.2  C4.2,93,4,93.1,4,93.3C4,93.5,4.1,93.6,4.3,93.6z"/><path d="M22.2,93.7C22.2,93.7,22.3,93.7,22.2,93.7c0.6-0.1,1.2-0.2,1.8-0.4c0.2,0,0.3-0.2,0.2-0.4s-0.2-0.3-0.4-0.2  c-0.6,0.1-1.2,0.3-1.7,0.4c-0.2,0-0.3,0.2-0.2,0.3C22,93.6,22.1,93.7,22.2,93.7z"/><path d="M52.5,37.7c0,0,0.1,0,0.1,0c0.1,0,0.2-0.1,0.3-0.2c0.3-0.5,0.6-1,0.9-1.5c0.1-0.1,0.1-0.3-0.1-0.4c-0.1-0.1-0.3-0.1-0.4,0.1  c-0.3,0.5-0.6,1-0.9,1.6C52.3,37.5,52.4,37.6,52.5,37.7z"/><path d="M51.1,41c0.1,0,0.2-0.1,0.3-0.2c0.2-0.6,0.5-1.1,0.7-1.6c0.1-0.1,0-0.3-0.1-0.4c-0.1-0.1-0.3,0-0.4,0.1  c-0.3,0.5-0.5,1.1-0.7,1.7c-0.1,0.2,0,0.3,0.2,0.4C51,41,51.1,41,51.1,41z"/><path d="M11.5,94.3c0.6,0,1.2,0.1,1.8,0.1c0,0,0,0,0,0c0.2,0,0.3-0.1,0.3-0.3c0-0.2-0.1-0.3-0.3-0.3c-0.6,0-1.2,0-1.8-0.1  c-0.2,0-0.3,0.1-0.3,0.3C11.2,94.1,11.3,94.3,11.5,94.3z"/><path d="M33.8,88.7c-0.5,0.3-1,0.6-1.5,0.9c-0.1,0.1-0.2,0.3-0.1,0.4c0.1,0.1,0.2,0.2,0.3,0.2c0,0,0.1,0,0.1,0  c0.5-0.3,1.1-0.6,1.6-1c0.1-0.1,0.2-0.3,0.1-0.4C34.1,88.6,33.9,88.6,33.8,88.7z"/><path d="M7.9,94c0.6,0.1,1.2,0.1,1.8,0.2c0,0,0,0,0,0c0.2,0,0.3-0.1,0.3-0.3c0-0.2-0.1-0.3-0.3-0.3c-0.6,0-1.2-0.1-1.8-0.2  c-0.2,0-0.3,0.1-0.3,0.3C7.6,93.9,7.7,94,7.9,94z"/><path d="M38.7,83.6c-0.3,0.5-0.7,1-1,1.4c-0.1,0.1-0.1,0.3,0,0.4c0.1,0,0.1,0.1,0.2,0.1c0.1,0,0.2,0,0.2-0.1c0.4-0.5,0.7-1,1.1-1.5  c0.1-0.1,0.1-0.3-0.1-0.4C38.9,83.5,38.7,83.5,38.7,83.6z"/><path d="M36.4,86.4c-0.4,0.4-0.8,0.8-1.3,1.2c-0.1,0.1-0.1,0.3,0,0.4c0.1,0.1,0.1,0.1,0.2,0.1c0.1,0,0.1,0,0.2-0.1  c0.5-0.4,0.9-0.8,1.3-1.2c0.1-0.1,0.1-0.3,0-0.4S36.5,86.3,36.4,86.4z"/><path d="M41.4,79.3c0.1,0,0.2-0.1,0.3-0.2c0.2-0.5,0.5-1.1,0.7-1.7c0.1-0.2,0-0.3-0.2-0.4c-0.2-0.1-0.3,0-0.4,0.2  c-0.2,0.6-0.4,1.1-0.7,1.7c-0.1,0.2,0,0.3,0.2,0.4C41.4,79.3,41.4,79.3,41.4,79.3z"/><path d="M45.4,63.4c-0.1,0.6-0.2,1.2-0.3,1.8c0,0.2,0.1,0.3,0.2,0.3c0,0,0,0,0.1,0c0.1,0,0.3-0.1,0.3-0.2c0.1-0.6,0.2-1.2,0.3-1.8  c0-0.2-0.1-0.3-0.2-0.3C45.5,63.1,45.4,63.2,45.4,63.4z"/><path d="M30.7,90.4c-0.6,0.2-1.1,0.5-1.6,0.7c-0.2,0.1-0.2,0.2-0.2,0.4c0,0.1,0.2,0.2,0.3,0.2c0,0,0.1,0,0.1,0  c0.6-0.2,1.1-0.5,1.7-0.7c0.1-0.1,0.2-0.2,0.1-0.4C31,90.4,30.8,90.3,30.7,90.4z"/><path d="M43,73.9c-0.2,0.6-0.3,1.1-0.5,1.7c-0.1,0.2,0,0.3,0.2,0.4c0,0,0.1,0,0.1,0c0.1,0,0.2-0.1,0.3-0.2c0.2-0.6,0.4-1.1,0.5-1.7  c0-0.2,0-0.3-0.2-0.4C43.2,73.6,43,73.7,43,73.9z"/><path d="M25.7,92.8C25.7,92.8,25.8,92.8,25.7,92.8c0.7-0.2,1.2-0.4,1.8-0.6c0.2-0.1,0.2-0.2,0.2-0.4c-0.1-0.2-0.2-0.2-0.4-0.2  c-0.6,0.2-1.1,0.4-1.7,0.5c-0.2,0-0.2,0.2-0.2,0.4C25.5,92.7,25.6,92.8,25.7,92.8z"/><path d="M44.7,66.9c-0.1,0.6-0.2,1.2-0.4,1.8c0,0.2,0.1,0.3,0.2,0.4c0,0,0,0,0.1,0c0.1,0,0.3-0.1,0.3-0.2c0.1-0.6,0.3-1.2,0.4-1.8  c0-0.2-0.1-0.3-0.2-0.4C44.9,66.6,44.7,66.7,44.7,66.9z"/><path d="M43.9,70.4c-0.1,0.6-0.3,1.2-0.4,1.7c0,0.2,0.1,0.3,0.2,0.4c0,0,0.1,0,0.1,0c0.1,0,0.3-0.1,0.3-0.2c0.2-0.6,0.3-1.2,0.4-1.8  c0-0.2-0.1-0.3-0.2-0.4C44.1,70.1,43.9,70.2,43.9,70.4z"/><path d="M39.8,82.6c0.1,0,0.2-0.1,0.3-0.1c0.3-0.5,0.6-1,0.9-1.6c0.1-0.1,0-0.3-0.1-0.4c-0.1-0.1-0.3,0-0.4,0.1  c-0.3,0.5-0.5,1.1-0.8,1.6c-0.1,0.1,0,0.3,0.1,0.4C39.7,82.6,39.8,82.6,39.8,82.6z"/><path d="M57.4,32c0.2-0.2,0.4-0.4,0.7-0.6c0.1-0.1,0.2-0.3,0.1-0.4c-0.1-0.1-0.3-0.2-0.4-0.1c-0.2,0.2-0.5,0.4-0.7,0.6  c-0.1,0.1-0.1,0.3,0,0.4c0.1,0.1,0.1,0.1,0.2,0.1C57.2,32.1,57.3,32.1,57.4,32z"/><path d="M80.3,14.6C80.3,14.6,80.3,14.6,80.3,14.6C80.3,14.6,80.3,14.6,80.3,14.6C80.3,14.6,80.3,14.6,80.3,14.6  C80.3,14.6,80.3,14.6,80.3,14.6c-0.1-0.1-0.1-0.1-0.1-0.1c0,0,0,0,0,0c0,0,0,0,0,0c0,0,0,0,0,0c0,0,0,0,0,0c0,0-0.1,0-0.1,0  c0,0,0,0,0,0c0,0,0,0,0,0c0,0,0,0,0,0c0,0,0,0-0.1,0c0,0,0,0,0,0l-27.2,6.2c-0.1,0-0.2,0.1-0.3,0.3c0,0.1,0,0.3,0.1,0.3l6.2,4.7  l0.8,5.3c0,0,0,0,0,0c0,0.1,0,0.1,0.1,0.1c0,0,0,0,0,0.1c0,0,0,0,0,0c0.1,0.1,0.1,0.1,0.2,0.1c0,0,0,0,0.1,0c0.1,0,0.1,0,0.2-0.1  c0,0,0,0,0,0l2.8-2.3l5.8,6c0.1,0.1,0.2,0.1,0.2,0.1c0,0,0,0,0,0c0.1,0,0.2-0.1,0.3-0.2l10.9-20.1c0,0,0,0,0,0c0,0,0,0,0,0  c0,0,0,0,0,0c0,0,0,0,0,0c0,0,0,0,0,0C80.3,14.8,80.3,14.7,80.3,14.6C80.3,14.7,80.3,14.7,80.3,14.6C80.3,14.7,80.3,14.7,80.3,14.6  C80.3,14.7,80.3,14.6,80.3,14.6C80.3,14.6,80.3,14.6,80.3,14.6z M72.1,16.9l5.4-1.2l-10.2,5.4c-5.6-0.3-8.9-0.5-10.8-0.6L72.1,16.9z   M75.4,17.6l-6.5,4.6c0,0,0,0,0,0l-1.4,1l0.1-1.5L75.4,17.6z M78.8,16l0.2-0.1l-9.1,16.8l-0.4-10.1L78.8,16z M54,21.1  c0.5,0,8,0.4,12.1,0.6l-7,3.7l-5.6-4.2L54,21.1z M59.5,26L67,22l-0.1,1.6l-5.1,3.6c0,0-0.1,0.1-0.1,0.1c0,0,0,0,0,0l-1.4,2.8  L59.5,26z M61.1,29.9l0.9-1.8l0.6,0.6L61.1,29.9z M69,34.3l-6.5-6.8l6.4-4.5l0.4,10.9L69,34.3z"/></svg>