<svg viewBox="8.135135135135137 8.788625000000003 83.24324324324324 82.62" version="1.1" xmlns="http://www.w3.org/2000/svg" style="max-height: 500px" width="83.24324324324324" height="82.62">
 <path d="m10.578 85.57 0.21094-0.42187s-0.058593-0.10938-0.058593-0.17969c0-0.17188 0.12891-0.30859 0.30078-0.30859s0.30859 0.12891 0.30859 0.30078c0 0.17187-0.12891 0.30859-0.30078 0.30859h-0.039062l-0.12109 0.23828 0.57812-0.10937 1.3789-2.3984 0.48828 0.25c0.26172 0.12891 0.57812 0.039062 0.73047-0.21875 2.6211-4.4805 5.3594-8.8906 8.2383-13.211 2.4414-3.6719 4.9688-7.2695 7.6016-10.801 7.3906-9.7812 15.559-19.16 24.738-27.352 1.5898-1.3281 3.1992-2.6406 4.8398-3.9102 6.2617-4.8281 12.898-9.1992 19.988-12.711 2.3711-1.1484 4.7695-2.25 7.2812-3.0508-2.4883 0.85938-4.8594 2-7.1992 3.1992-18.559 9.9414-33.789 25.09-46.82 41.43-2.7188 3.4609-5.3398 7-7.8789 10.602 0.17969 0.28906 0.26953 0.67188 0.21875 1.1602-0.21875 1.8984-1.3594 3.4492-1.3594 3.4492s1.6211-1.3281 1.8008-3.8789c0 0 0.75 0.5 0.32031 1.5117 0 0 0.48047-0.011719 0.66016-0.25 0 0 0.12109 0.64844-0.78125 0.94922 0 0 10.441 1.1484 15.711-6.8984 0 0-1.3203 1.25-3.2812 1.5586 0 0 15.922-15.609 21.02-16.551 0 0-1.2383-0.71094-4.1992-0.71875 1.1211-0.039063 4.8906-0.42188 7.7891-3.6289 0 0-0.85938-0.67969-1.5781-0.67969 0 0 4.6289-1.6914 6.3203-4.7812 0 0 4.8086-6.1016 7.0586-6.8594 0 0-2.1992-0.078125-3.9688 0.62109 1.2617-0.55859 4.9297-2.1406 6.8203-2.5195 1.3906-0.28125 2.1094-1.0586 2.4609-1.6406 5.1797-1.6016 5.8711-3.7383 5.8711-3.7383l-6.5586 0.32812 7.7812-1.75c3.8086-4.9609 2.9492-12.281 2.9492-12.281s-5.1016-0.71875-7.4492 0c0 0-1.8516 1.5312-3.1992 3.0508l2.7305-3.4688c-1.6992 0.44922-3.2109 1.3398-4.5781 2.5312l1.3281-1.9414c-1.9219 0.51953-3.9805 1.7695-6.0898 3.3203l1.9219-2.6797c-2.9219 1.4414-5.9492 2.8594-6.6992 4.6016-1.6992 0.51172-3.3789 1.0391-4.6016 2.3906-2.3906 0.42969-4.4414 1.6016-6.2305 3.3516-3.5781 3.1016-7.1094 5.6914-10.539 7.1797-2.6094 1.4219-4.4688 3.1016-5.4609 5.0781l-5 7.8281-0.25-1.6211c-0.62891 2.6406-1.6602 5.1484-3.1289 7.5117-1.9609 1.6406-3.9414 3.2812-4.6719 4.8086-1.9102 2.7305-3.9219 5.8906-5.2383 6.3203l-0.5 3.0195s-0.71875-0.10938-0.78906-0.89844c0 0-0.25 1.6914 0.39844 2.6211 0 0-2.2617-0.75-3.3086 0.28906 0 0 2.1211-0.28906 3.1602 1.1484 0 0 0 0.82813-1.5781 0.5 0 0 0.73047 0.44922 1.6484 0.64844-0.66016 0.91016-1.3203 1.8203-1.9688 2.7383-0.35156 0.48828-0.69141 0.98047-1.0312 1.4688-2.5586 3.6602-5.0312 7.3789-7.3984 11.148-0.17188 0.26953-0.078125 0.62109 0.19141 0.76953l0.28906 0.17188-1.8516 3.1406 0.57812-0.10938z"/>
 <path d="m69.52 86.512c-9.8711-6.0508-19.32-5.2812-29.852-1.4688-4.7891 1.6211-9.5586 2.9414-14.629 3.1797-4 0.12109-11.641 0.78906-14.281-2.6719 2.2305 4.0781 10.191 4.1484 14.328 4.2305 5.1602 0.10156 10.34-1.2383 15.191-2.8398 10.461-3.8398 18.691-4.8008 29.23-0.42969z"/>
<text fill="#000000" font-family="Arbeit Regular, Helvetica, Arial-Unicode, Arial, Sans-serif" font-weight="bold" font-size="5.0" y="117.5" x="0.0">Created by Kang Firman</text><text fill="#000000" font-family="Arbeit Regular, Helvetica, Arial-Unicode, Arial, Sans-serif" font-weight="bold" font-size="5.0" y="122.5" x="0.0">from Noun Project</text></svg>