<svg xmlns="http://www.w3.org/2000/svg" xmlns:xlink="http://www.w3.org/1999/xlink" version="1.1" x="0px" y="0px" viewBox="0 0 100 125" style="enable-background:new 0 0 100 100;" xml:space="preserve"><path d="M49.7,95c-9.7,0-19.4,0-29.1,0c-1,0-2.1,0-3.1-0.1c-3.8-0.4-6.1-3.1-6.1-7c0-16.9,0.1-33.8,0-50.8c0-4.1,2.5-7.1,7-7.1  c4,0,8.1,0,12.1,0c1,0,1.9-0.1,1.9,1.4c0,0.4,0.9,1.1,1.4,1.1c10.9,0,21.8,0,32.7,0c0.4,0,1.3-0.6,1.3-1C67.7,30,68.6,30,69.7,30  c4.2,0,8.4-0.1,12.5,0c4.2,0.1,6.6,2.5,6.6,6.7c0,16.8,0,33.6,0,50.3c0,5.1-2.6,7.8-7.8,7.9C70.4,95,60.1,95,49.7,95L49.7,95z   M40.9,75.8L40.9,75.8c3.6,0,7.3,0.2,10.9,0c5.8-0.4,9.4-3.7,9.9-9.5c0.4-5.5,0.6-11,0.3-16.5c-0.2-4.7-2.6-10.3-10.2-10.6  c-7.2-0.3-14.5-0.4-21.6,0.1C23,39.7,20.1,43.2,20,50.4c-0.1,5.3,0,10.6,0.1,15.9c0.2,5.3,3.4,8.9,8.6,9.4  C32.7,76.1,36.8,75.8,40.9,75.8z M76.6,72.2c-2.2,0-4.3,1.9-4.3,4.2c-0.1,2.3,2,4.5,4,4.6c2.5,0,4.6-1.9,4.7-4.2  C81,74.7,78.7,72.3,76.6,72.2z M35.7,83.8c-0.8,0-1.6-0.1-2.5,0c-0.4,0-0.9,0.3-1,0.5c-0.8,1.7,0.1,3.1,2,3.1c1.3,0,2.5,0,3.8,0  c0.4,0,0.9-0.2,1-0.5c0.8-1.6-0.2-3.2-2-3.2C36.6,83.8,36.2,83.8,35.7,83.8z M52.1,87.5c0.3-3.7,0.3-3.7-3.1-3.7c-0.8,0-1.6,0-2.4,0  c-1.8-0.1-1,1.2-1.1,2s-0.3,1.8,1.2,1.8C48.4,87.5,50.2,87.5,52.1,87.5z M22.5,87.5c0.7,0,1.5,0.1,2.2,0c0.5-0.1,1.1-0.7,1.1-1.1  c0.3-2.4,0.2-2.5-2.2-2.5c-0.7,0-1.5,0.1-2.2,0c-1.6-0.2-2,0.4-2,2c0,1.7,0.7,1.8,2,1.7C21.7,87.5,22.1,87.5,22.5,87.5z M61.7,87.5  c0.4,0,0.9,0,1.3,0c1.3,0.1,2.2,0.1,2.2-1.8c0-1.7-0.7-2-2.1-1.9c-0.9,0.1-1.8,0.1-2.7,0c-1.4-0.2-2,0.2-2.1,1.9  c0,1.9,0.9,1.9,2.2,1.8C60.9,87.4,61.3,87.4,61.7,87.5z M76.3,49.3c-1.8-0.1-2.4,1.1-2.5,2.5c-0.1,1.7,1.2,2.9,2.7,2.9  c1.5-0.1,2.5-1.3,2.5-2.9C79,50.1,78,49.2,76.3,49.3z M79,42.6c-0.1-1.4-0.5-2.6-2.2-2.7c-1.7-0.2-2.6,0.7-2.7,2.4  c-0.1,1.6,0.6,2.5,2.3,2.6C78,45,78.8,44.1,79,42.6z"/><path d="M36.4,28.5c0-0.4,0-0.8,0.1-1c1.8-2.1,0.5-3.8-0.5-5.6c-0.8-1.5-1.5-3.1-2.3-4.6s-1.1-3.1-3.5-3.3c-2-0.1-3.2-3.8-2.5-6  s3-3.6,5.3-3.1c2.4,0.5,3.8,2.7,3.3,5.2c-0.2,1.3,0.1,2.2,0.9,3.2c1.7,2.1,3.2,4.3,4.8,6.5c0.5,0.7,0.9,1.1,2.1,0.7  c3.9-1.5,7.9-1.3,11.8,0c1.1,0.4,1.7,0.1,2.3-0.8c1.1-1.8,2.3-3.4,3.5-5.2c1-1.4,2-2.6,1.5-4.8c-0.6-2.3,1.7-4.5,4.3-4.7  c2.2-0.2,4.2,1.3,4.6,3.4c0.5,2.7-1,5.3-3.4,5.8c-1.3,0.2-1.6,0.9-2.1,1.9c-1.1,2.6-2.4,5.1-3.8,7.6c-0.6,1-0.6,1.8,0.2,2.8  c0.4,0.5,0.5,1.3,0.8,2C54.5,28.5,45.5,28.5,36.4,28.5z"/><text x="0" y="115" fill="#000000" font-size="5px" font-weight="bold" font-family="'Helvetica Neue', Helvetica, Arial-Unicode, Arial, Sans-serif">Created by CC0hort</text><text x="0" y="120" fill="#000000" font-size="5px" font-weight="bold" font-family="'Helvetica Neue', Helvetica, Arial-Unicode, Arial, Sans-serif">from the Noun Project</text></svg>